<?xml version="1.0" encoding="utf-8"?>
<!-- Generator: Adobe Illustrator 23.0.4, SVG Export Plug-In . SVG Version: 6.00 Build 0)  -->
<svg version="1.1" id="Calque_1" xmlns="http://www.w3.org/2000/svg" xmlns:xlink="http://www.w3.org/1999/xlink" x="0px" y="0px"
	 viewBox="0 0 292.83 149.85" style="enable-background:new 0 0 292.83 149.85;" xml:space="preserve">
<style type="text/css">
	.st0{fill:#FFFFFF;}
</style>
<g id="_x37_YhdiZ.tif">
	<g>
		<path class="st0" d="M280.3,82.09c-0.35,0.28-0.87,0.5-1.01,0.86c-2.73,6.84-8.01,10.29-15.08,11.16
			c-8.87,1.1-16.55-1.31-22.47-8.29c-3.21-3.78-4.85-8.23-5.37-13.11c-0.61-5.79-0.04-11.41,2.66-16.69
			c2.32-4.55,5.82-8,10.21-10.51c5.05-2.9,10.54-3.64,16.23-2.81c3.44,0.5,6.71,1.64,9.44,3.84c1.13,0.91,2.08,2.22,2.72,3.54
			c1.01,2.08-0.12,4.78-2.01,5.48c-2.27,0.85-4.8-0.35-5.63-2.69c-0.55-1.54-1-3.11-1.57-4.64c-0.59-1.57-1.89-2.42-3.45-2.66
			c-3.95-0.58-7.82-0.44-11.39,1.67c-2.58,1.52-4.31,3.78-5.45,6.5c-2.46,5.85-2.44,12-2,18.18c0.31,4.31,1.34,8.42,3.57,12.19
			c2.23,3.78,5.51,6.06,9.82,6.79c4.52,0.77,8.85,0.28,12.73-2.41c2.25-1.56,3.66-3.76,4.68-6.24c0.67-1.63,0.83-1.77,2.56-1.59
			c0.27,0.03,0.55,0,0.83-0.01C280.3,81.13,280.3,81.61,280.3,82.09z"/>
		<path class="st0" d="M181.9,137.53c-0.3-0.31-0.55-0.77-0.91-0.9c-4.9-1.74-7.65-6.55-6.65-11.74c0.97-5.09,5.47-8.75,10.57-8.39
			c1.38,0.1,2.76,0.72,4.05,1.32c0.84,0.39,1.41,0.77,2.16-0.13c0.55-0.66,1.21-0.32,1.27,0.42c0.15,1.83,0.18,3.67,0.18,5.51
			c0,0.24-0.46,0.7-0.65,0.67c-0.32-0.05-0.69-0.34-0.87-0.63c-0.61-1.02-1.02-2.18-1.74-3.11c-1.39-1.81-3.29-2.64-5.59-2.26
			c-2.45,0.41-3.75,2.16-4.34,4.32c-0.85,3.1-0.86,6.25,0.49,9.27c1.68,3.78,5.85,4.66,8.86,1.77c0.95-0.91,1.51-2.22,2.31-3.3
			c0.32-0.43,0.79-0.74,1.2-1.1c0.24,0.49,0.66,0.96,0.69,1.46c0.09,1.43,0.08,2.88,0,4.31c-0.03,0.48-0.39,0.94-0.6,1.41
			c-0.41-0.3-0.93-0.51-1.19-0.91c-0.35-0.54-0.63-0.95-1.31-0.56c-1.06,0.62-2.12,1.25-3.16,1.92c-0.15,0.1-0.16,0.42-0.23,0.64
			C184.94,137.53,183.42,137.53,181.9,137.53z"/>
		<path class="st0" d="M55.09,49.81c1.03,0.19,2.06,0.39,3.1,0.56c3.94,0.63,7.71,1.8,11.1,3.95c5.34,3.39,8.59,8.11,9.14,14.54
			c0.74,8.68-3.37,16.27-11.13,20.23c-2.95,1.51-6.17,2.26-9.45,2.49c-5.14,0.36-10.29,0.72-15.44,0.79
			c-8.99,0.13-17.99,0.04-26.99,0.04c-0.28,0-0.56,0.02-0.84-0.01c-0.81-0.1-1.64-0.03-1.65-1.33c-0.02-1.33,0.78-1.4,1.67-1.45
			c1.83-0.11,3.68-0.06,5.51-0.25c3.5-0.38,5.37-2.13,5.81-5.62c0.31-2.41,0.39-4.86,0.39-7.3c0-16.91-0.01-33.83-0.11-50.74
			c-0.01-2.21-0.42-4.44-0.87-6.61c-0.32-1.54-1.49-2.62-3.08-2.86c-2.16-0.33-4.36-0.47-6.54-0.66c-1.28-0.11-1.94-0.92-1.38-1.97
			c0.23-0.44,0.97-0.81,1.51-0.85c2.03-0.13,4.08-0.1,6.11-0.15c7.39-0.17,14.79-0.46,22.18-0.5c5.77-0.03,11.51,0.54,17.03,2.37
			c4.7,1.56,8.87,3.88,11.33,8.45c2.22,4.13,2.38,8.53,1.14,12.93c-1.5,5.34-5.35,8.6-10.3,10.63c-2.24,0.92-4.64,1.43-6.96,2.15
			c-0.46,0.14-0.88,0.41-1.33,0.62C55.06,49.44,55.07,49.62,55.09,49.81z M37.88,67.54c0,0,0.01,0,0.01,0
			c0,1.92-0.04,3.84,0.01,5.75c0.08,3.31,0.07,6.64,0.34,9.94c0.3,3.77,2.28,5.75,5.99,6.14c3.55,0.37,7.08,0.26,10.56-0.78
			c5.58-1.67,8.92-5.4,10.34-10.92c1.13-4.39,1.2-8.82,0.24-13.29c-1.46-6.77-5.57-10.38-11.77-11.96c-4.71-1.2-9.5-1.15-14.29-1.11
			c-1.11,0.01-1.43,0.58-1.42,1.6C37.89,57.79,37.88,62.67,37.88,67.54z M37.88,31.84C37.88,31.84,37.88,31.84,37.88,31.84
			c0,4.99,0,9.99,0.01,14.98c0,1.34,0.31,1.67,1.59,1.67c4,0.02,7.98-0.2,11.9-1.14c4.89-1.18,8.33-3.97,9.7-8.92
			c1.3-4.68,1.31-9.42-0.02-14.09c-1.12-3.93-3.69-6.72-7.58-8.04c-4.62-1.56-9.43-1.48-14.24-1.28c-1.16,0.05-1.38,0.83-1.38,1.83
			C37.89,21.85,37.88,26.85,37.88,31.84z"/>
		<path class="st0" d="M221.93,71.27c0,4.4-0.07,8.8,0.02,13.19c0.07,3.39,1.4,4.69,4.8,5.04c0.48,0.05,0.96,0.04,1.44,0.08
			c1,0.07,1.38,0.7,1.37,1.62c-0.01,0.94-0.63,1.22-1.44,1.23c-2.24,0.01-4.48-0.01-6.72-0.01c-4.92,0-9.84,0.01-14.76,0
			c-1.28,0-1.69-0.49-1.53-1.68c0.1-0.77,0.54-1.11,1.29-1.14c0.88-0.04,1.76-0.04,2.63-0.16c2.63-0.36,4.05-1.93,4.12-4.58
			c0.07-2.52,0.15-5.04,0.14-7.55c-0.03-7.44-0.14-14.87-0.15-22.31c-0.01-5.31-4.09-8.8-9.19-8.84c-4.3-0.04-7.86,1.71-10.88,4.57
			c-1.56,1.47-2.88,3.2-4.21,4.9c-0.38,0.49-0.59,1.25-0.59,1.88c-0.01,8.12,0.01,16.23,0.06,24.35c0.01,1.39,0.09,2.8,0.34,4.17
			c0.35,1.96,1.7,3.02,3.62,3.32c0.87,0.14,1.75,0.19,2.63,0.23c1.07,0.05,1.31,0.73,1.31,1.63c0,0.94-0.55,1.24-1.4,1.24
			c-7.12-0.01-14.24-0.01-21.35,0c-0.92,0-1.44-0.33-1.43-1.33c0.01-0.94,0.34-1.53,1.39-1.55c0.72-0.01,1.44-0.05,2.15-0.15
			c2.66-0.37,4.07-1.72,4.21-4.39c0.18-3.31,0.19-6.63,0.2-9.95c0.01-6.88-0.03-13.76-0.06-20.63c0-0.6-0.01-1.2-0.07-1.8
			c-0.26-2.75-1.52-4.1-4.25-4.53c-0.79-0.12-1.64-0.01-2.37-0.26c-0.49-0.17-1.11-0.78-1.13-1.22c-0.02-0.53,0.4-1.25,0.86-1.59
			c0.43-0.32,1.15-0.24,1.73-0.36c2.89-0.6,5.78-1.22,8.67-1.83c0.08-0.02,0.15-0.05,0.23-0.07c2.81-0.81,3.29-0.57,3.86,2.24
			c0.34,1.68,0.44,3.4,0.68,5.1c0.06,0.41,0.25,0.8,0.38,1.2c0.4-0.2,0.9-0.31,1.18-0.61c2.64-2.86,5.59-5.3,9.24-6.71
			c6.1-2.36,12.11-2.5,17.74,1.34c2.48,1.69,4.1,4.11,4.37,7.14c0.36,4.06,0.52,8.13,0.68,12.2c0.09,2.2,0.02,4.4,0.02,6.6
			C221.82,71.27,221.88,71.27,221.93,71.27z"/>
		<path class="st0" d="M156.96,70.57c0,4.28-0.01,8.55,0.01,12.83c0,0.84,0.1,1.68,0.2,2.51c0.23,1.84,1.22,3.08,2.62,3.34
			c1.62,0.3,3.41-0.54,4.23-2.08c0.41-0.77,0.71-1.61,0.99-2.44c0.25-0.76,0.61-1.35,1.52-1.17c0.83,0.17,0.84,0.87,0.77,1.53
			c-0.51,4.8-3.5,8.36-8.81,8.52c-2.96,0.09-5.75-0.33-7.68-2.79c-0.89-1.13-1.43-2.55-2-3.9c-0.55-1.3-0.81-1.43-1.98-0.62
			c-3.94,2.77-8.07,5.19-12.73,6.55c-4.83,1.41-9.47,1.16-13.45-2.26c-3.07-2.65-3.92-6.07-2.93-9.99c1.03-4.07,3.83-6.73,7.12-9
			c5-3.44,10.46-5.98,16.07-8.24c2.15-0.86,4.27-1.8,6.41-2.69c0.76-0.32,1.11-0.85,1.07-1.68c-0.09-1.88-0.17-3.75-0.22-5.63
			c-0.1-4.12-2.52-6.56-6.14-7.65c-3.61-1.09-7.35-1.09-10.89,0.57c-1.73,0.81-2.76,2.19-3.28,4.05c-0.45,1.6-0.87,3.28-1.7,4.68
			c-1.43,2.4-5.12,2.47-6.47,0.26c-0.77-1.27-0.62-2.64,0.02-3.9c2.05-4.11,5.46-6.61,9.79-7.86c4.73-1.37,9.58-1.39,14.4-0.75
			c4.23,0.56,8.05,2.23,10.63,5.83c0.83,1.16,1.41,2.63,1.64,4.04c0.4,2.43,0.54,4.92,0.6,7.39c0.09,3.52,0.02,7.04,0.02,10.55
			C156.84,70.57,156.9,70.57,156.96,70.57z M148.38,72.88c0-2.64,0-5.28,0-7.92c0-1.53-0.51-1.81-1.94-1.14
			c-1.23,0.58-2.49,1.09-3.75,1.6c-3.91,1.57-7.68,3.41-10.86,6.24c-3.21,2.86-5.09,6.3-4.71,10.77c0.44,5.16,4.88,8.04,9.78,6.41
			c3.91-1.3,7.22-3.55,10.45-6c0.78-0.59,1.05-1.33,1.04-2.28C148.35,78,148.38,75.44,148.38,72.88z"/>
		<path class="st0" d="M102.44,48.73c0,11.04-0.01,22.08,0.01,33.12c0,1.16,0.06,2.32,0.2,3.47c0.29,2.44,1.55,3.73,3.98,4.1
			c0.91,0.14,1.83,0.16,2.75,0.18c0.99,0.02,1.6,0.4,1.62,1.48c0.02,1.1-0.67,1.35-1.57,1.35c-7.52,0-15.04,0-22.56,0
			c-0.89,0-1.6-0.21-1.59-1.32c0.01-1.07,0.57-1.48,1.58-1.51c1-0.02,2.01-0.04,2.99-0.2c2.48-0.4,3.9-1.93,4.01-4.49
			c0.14-3.31,0.17-6.64,0.18-9.95c0.01-16.12,0.01-32.24-0.05-48.35c-0.01-2.02-0.38-4.05-0.69-6.06c-0.28-1.79-1.53-2.76-3.21-3.16
			c-0.89-0.21-1.82-0.28-2.73-0.39c-0.89-0.1-1.23-0.65-1.23-1.48c0-0.88,0.45-1.24,1.32-1.36c3.64-0.5,7.28-1.02,10.9-1.63
			c0.81-0.14,1.56-0.67,2.34-1.01c0.59-0.26,1.2-0.42,1.43,0.42c0.16,0.57,0.29,1.17,0.29,1.75c0.02,11.68,0.01,23.36,0.01,35.04
			C102.42,48.73,102.43,48.73,102.44,48.73z"/>
		<path class="st0" d="M150.34,136.17c-0.84,0.25-1.4,0.54-1.97,0.56c-2.08,0.07-4.16,0.07-6.24,0.02
			c-0.45-0.01-0.89-0.37-1.34-0.56c0.35-0.31,0.64-0.76,1.05-0.92c0.96-0.38,1.18-0.99,0.86-1.89c-0.7-1.99-0.91-2.13-3.03-2.11
			c-0.96,0.01-1.92,0.05-2.88-0.02c-1.5-0.12-1.76,1-2.1,2.01c-0.35,1.04,0.16,1.65,1.11,2.06c0.3,0.13,0.49,0.54,0.72,0.82
			c-0.35,0.21-0.7,0.6-1.05,0.6c-1.79-0.02-3.58-0.2-5.37-0.21c-1.35-0.01-2.7,0.1-4.04,0.22c-1.38,0.13-2.25-0.5-2.93-1.63
			c-1.17-1.95-2.37-3.89-3.64-5.78c-0.33-0.5-0.88-0.96-1.44-1.18c-1.89-0.74-2.81-0.04-2.74,1.97c0.03,0.92,0.01,1.84,0.01,2.76
			c0,1.46,0.4,1.94,1.81,2.43c0.38,0.14,0.67,0.53,1,0.81c-0.42,0.22-0.83,0.63-1.25,0.64c-2.36,0.06-4.72,0.06-7.07-0.01
			c-0.44-0.01-0.87-0.39-1.3-0.59c0.36-0.3,0.66-0.75,1.07-0.88c1.12-0.37,1.6-1.05,1.6-2.22c-0.02-4.16-0.03-8.32,0-12.48
			c0.01-1.3-0.57-1.98-1.79-2.32c-0.32-0.09-0.54-0.57-0.8-0.87c0.32-0.25,0.65-0.71,0.97-0.7c4.06,0.03,8.15-0.59,12.17,0.52
			c1.53,0.42,2.78,1.22,3.55,2.64c1.36,2.5,0.59,5.02-1.92,6.41c-1.19,0.66-1.17,0.88-0.33,1.97c1.33,1.74,2.5,3.61,3.86,5.33
			c0.6,0.75,1.46,1.34,2.29,1.85c0.8,0.49,2.31-0.05,2.96-1.18c0.79-1.38,1.43-2.85,2.01-4.33c1.55-3.98,3.02-8,4.59-11.97
			c0.21-0.53,0.85-0.89,1.29-1.33c0.4,0.5,0.94,0.93,1.17,1.5c1.54,3.81,3.02,7.65,4.52,11.48c0.41,1.04,0.88,2.06,1.21,3.13
			c0.4,1.32,1.19,2.23,2.44,2.79C149.61,135.58,149.8,135.79,150.34,136.17z M115.32,122.35c0.01,0,0.02,0,0.02,0c0,0.4,0,0.8,0,1.2
			c-0.02,2.88,0.31,3.15,3.16,2.47c0.08-0.02,0.17-0.02,0.23-0.06c0.79-0.56,1.91-0.96,2.28-1.72c0.69-1.41,0.75-3.09-0.27-4.44
			c-1.11-1.47-2.82-1.56-4.48-1.33c-0.36,0.05-0.84,0.71-0.9,1.15C115.22,120.5,115.32,121.43,115.32,122.35z M138.52,129.65
			c0-0.01,0-0.02,0-0.02c0.52,0,1.04,0.05,1.55-0.01c0.77-0.09,1-0.57,0.72-1.28c-0.47-1.18-0.92-2.37-1.43-3.53
			c-0.15-0.33-0.45-0.6-0.68-0.89c-0.28,0.3-0.68,0.54-0.83,0.89c-0.51,1.16-0.94,2.36-1.38,3.55c-0.29,0.79,0.02,1.23,0.86,1.28
			C137.72,129.67,138.12,129.65,138.52,129.65z"/>
		<path class="st0" d="M150.63,135.87c0.33-0.19,0.64-0.48,0.99-0.57c1.25-0.3,1.63-1.16,1.64-2.32c0.01-3.96,0.02-7.92,0.02-11.87
			c0-1.29-0.52-2.2-1.79-2.69c-0.32-0.12-0.5-0.61-0.75-0.93c0.34-0.22,0.68-0.61,1.03-0.63c1.19-0.07,2.41-0.11,3.59,0.03
			c0.58,0.07,1.25,0.43,1.63,0.87c3.03,3.56,5.99,7.17,9,10.75c0.25,0.29,0.67,0.44,1.01,0.65c0.14-0.38,0.4-0.77,0.4-1.16
			c0.01-2.44-0.05-4.88-0.04-7.31c0-1.16-0.29-2.01-1.58-2.33c-0.32-0.08-0.54-0.57-0.81-0.87c0.37-0.23,0.73-0.64,1.12-0.65
			c1.56-0.07,3.12-0.07,4.67,0.01c0.36,0.02,0.7,0.46,1.05,0.7c-0.29,0.28-0.52,0.69-0.87,0.82c-1.57,0.59-1.78,0.82-1.79,2.52
			c-0.02,4.8-0.01,9.59-0.06,14.39c-0.01,0.48-0.37,0.97-0.57,1.45c-0.48-0.21-1.11-0.3-1.42-0.66c-3.48-4.12-6.92-8.27-10.36-12.42
			c-0.2-0.25-0.36-0.54-0.59-0.75c-0.19-0.17-0.55-0.4-0.69-0.32c-0.23,0.13-0.46,0.46-0.47,0.72c-0.04,0.96,0.01,1.92,0.01,2.88
			c0,2.24-0.01,4.48-0.01,6.72c0,1.6,0.26,1.9,1.75,2.41c0.38,0.13,0.66,0.54,0.99,0.83c-0.39,0.21-0.77,0.59-1.17,0.61
			c-1.52,0.07-3.04,0.06-4.55,0.01c-0.47-0.02-0.92-0.29-1.38-0.45C150.64,136.16,150.63,136.02,150.63,135.87z"/>
		<path class="st0" d="M204.27,136.78c-2.32,0-4.63,0-6.95,0c-0.36,0-0.74,0.03-1.06-0.09c-0.26-0.09-0.59-0.38-0.61-0.6
			c-0.02-0.21,0.31-0.62,0.53-0.65c2.18-0.3,2.29-1.81,2.27-3.54c-0.05-3.56-0.01-7.11-0.01-10.67c0-1.98-0.15-2.16-1.94-2.88
			c-0.33-0.13-0.53-0.58-0.79-0.89c0.35-0.21,0.69-0.59,1.04-0.6c2.08-0.05,4.15-0.01,6.23-0.01c2.44,0,4.88,0.03,7.31,0
			c1.15-0.01,1.7,0.51,1.75,1.64c0.03,0.76,0.14,1.52,0.09,2.27c-0.03,0.37-0.34,0.73-0.53,1.09c-0.37-0.24-0.77-0.45-1.1-0.74
			c-0.16-0.14-0.2-0.43-0.28-0.65c-0.43-1.13-1.28-1.76-2.43-1.85c-1.27-0.1-2.55-0.08-3.83-0.07c-0.85,0.01-1.34,0.43-1.33,1.34
			c0.01,1.4,0.01,2.8,0,4.2c-0.01,0.88,0.45,1.3,1.3,1.4c1.74,0.19,2.17-0.04,3.13-1.64c0.16-0.26,0.56-0.56,0.8-0.52
			c0.25,0.04,0.62,0.46,0.63,0.72c0.06,1.55,0.06,3.11,0.02,4.67c-0.01,0.24-0.35,0.65-0.55,0.66c-0.28,0.01-0.77-0.23-0.84-0.45
			c-0.49-1.68-1.79-1.74-3.16-1.68c-0.85,0.03-1.33,0.5-1.34,1.37c-0.01,1.52-0.02,3.04,0.03,4.55c0.03,0.98,0.56,1.79,1.54,1.86
			c1.46,0.1,2.96,0.1,4.4-0.13c1.39-0.22,2.28-1.24,2.73-2.6c0.13-0.38,0.18-0.81,0.4-1.12c0.23-0.31,0.63-0.49,0.96-0.73
			c0.21,0.34,0.6,0.68,0.61,1.02c0.03,1.28-0.06,2.55-0.1,3.83c-0.03,1.05-0.55,1.48-1.59,1.47c-2.44-0.03-4.88-0.01-7.31-0.01
			C204.27,136.74,204.27,136.76,204.27,136.78z"/>
		<path class="st0" d="M98.26,116.86c2.16,0,4.32,0.03,6.48-0.01c1.02-0.02,1.49,0.41,1.51,1.4c0.02,0.84,0.08,1.68,0.01,2.52
			c-0.03,0.38-0.33,0.74-0.51,1.11c-0.33-0.24-0.69-0.44-0.97-0.72c-0.19-0.19-0.27-0.48-0.37-0.75c-0.45-1.2-1.4-1.73-2.59-1.82
			c-1.19-0.09-2.4-0.07-3.59-0.07c-0.83,0-1.24,0.44-1.23,1.28c0.01,1.28,0,2.56,0,3.84c0,0.77-0.09,1.57,0.94,1.8
			c1.2,0.27,2.44-0.12,2.9-0.9c0.29-0.5,0.31-1.52,1.16-1.14c0.36,0.16,0.46,1.12,0.51,1.73c0.09,1.03,0.12,2.08,0.05,3.11
			c-0.03,0.44-0.38,0.86-0.58,1.29c-0.33-0.32-0.79-0.59-0.96-0.98c-0.52-1.17-2.56-1.89-3.53-1.1c-0.27,0.22-0.46,0.68-0.47,1.03
			c-0.04,1.52-0.05,3.04,0.02,4.55c0.07,1.45,0.57,1.92,1.98,2.31c0.39,0.11,0.71,0.48,1.07,0.73c-0.39,0.24-0.78,0.69-1.19,0.7
			c-2.52,0.07-5.03,0.06-7.55,0.01c-0.38-0.01-0.76-0.4-1.14-0.61c0.31-0.29,0.58-0.72,0.94-0.84c1.2-0.37,1.81-1.13,1.81-2.36
			c0.02-4.12,0.04-8.23,0.03-12.35c0-1.12-0.56-1.84-1.7-2.17c-0.4-0.12-0.7-0.59-1.04-0.91c0.43-0.24,0.86-0.67,1.3-0.69
			c2.24-0.07,4.47-0.03,6.71-0.03C98.26,116.82,98.26,116.84,98.26,116.86z"/>
	</g>
</g>
</svg>
