<?xml version="1.0" encoding="utf-8"?>
<!-- Generator: Adobe Illustrator 23.0.4, SVG Export Plug-In . SVG Version: 6.00 Build 0)  -->
<svg version="1.1" id="Layer_1" xmlns="http://www.w3.org/2000/svg" xmlns:xlink="http://www.w3.org/1999/xlink" x="0px" y="0px"
	 viewBox="0 0 408.18 115.56" style="enable-background:new 0 0 408.18 115.56;" xml:space="preserve">
<style type="text/css">
	.st0{fill:#FFFFFF;}
</style>
<g>
	<path class="st0" d="M67.98,37.07c-0.28-2.11-0.78-4.03-1.5-5.76c-0.73-1.73-1.75-3.12-3.09-4.18c-1.34-1.06-3.12-1.59-5.34-1.59
		c-2.78,0-5.07,0.64-6.85,1.92c-1.78,1.28-3.12,3.17-4.01,5.68c-0.89,2.51-1.5,5.68-1.84,9.52c-0.33,3.84-0.5,8.38-0.5,13.61
		c0,5.57,0.17,10.33,0.5,14.28c0.33,3.95,0.94,7.21,1.84,9.77c0.89,2.56,2.14,4.43,3.76,5.6c1.61,1.17,3.7,1.75,6.26,1.75
		c3.9,0,6.74-1.67,8.52-5.01c1.78-3.34,2.67-8.69,2.67-16.03h22.05c0,11.8-2.65,20.79-7.93,26.97c-5.29,6.18-14.06,9.27-26.31,9.27
		c-5.79,0-10.83-0.7-15.12-2.09c-4.29-1.39-7.85-3.9-10.69-7.52c-2.84-3.62-4.98-8.46-6.43-14.53c-1.45-6.07-2.17-13.61-2.17-22.63
		c0-9.24,0.89-16.9,2.67-22.97c1.78-6.07,4.29-10.91,7.52-14.53c3.23-3.62,7.07-6.15,11.52-7.6c4.45-1.45,9.35-2.17,14.7-2.17
		c10.69,0,18.73,3.12,24.13,9.35c5.4,6.24,8.1,14.7,8.1,25.39H68.4C68.4,41.36,68.26,39.19,67.98,37.07z"/>
	<path class="st0" d="M124.52,11.18v12.03h0.33c2.34-4.34,5.18-7.82,8.52-10.44c3.34-2.61,7.4-3.93,12.19-3.93
		c0.67,0,1.36,0.03,2.09,0.08c0.72,0.06,1.42,0.14,2.09,0.25v22.05c-1.23-0.11-2.42-0.19-3.59-0.25c-1.17-0.05-2.37-0.08-3.59-0.08
		c-2,0-4.01,0.28-6.01,0.84c-2,0.56-3.84,1.48-5.51,2.76c-1.67,1.28-3.01,2.95-4.01,5.01c-1,2.06-1.5,4.59-1.5,7.6v53.95h-23.05
		V11.18H124.52z"/>
	<path class="st0" d="M157.92,36.57c0-5.23,0.84-9.6,2.51-13.11s3.93-6.35,6.76-8.52s6.18-3.73,10.02-4.68
		c3.84-0.94,7.93-1.42,12.28-1.42c6.9,0,12.47,0.67,16.7,2c4.23,1.34,7.52,3.23,9.85,5.68c2.34,2.45,3.93,5.37,4.76,8.77
		c0.84,3.4,1.25,7.1,1.25,11.11v47.27c0,4.23,0.19,7.52,0.58,9.85c0.39,2.34,1.14,4.84,2.25,7.52h-22.05
		c-0.78-1.45-1.36-2.98-1.75-4.59c-0.39-1.61-0.75-3.2-1.09-4.76h-0.33c-2.67,4.68-5.76,7.71-9.27,9.1
		c-3.51,1.39-8.05,2.09-13.61,2.09c-4.01,0-7.41-0.7-10.19-2.09c-2.78-1.39-5.01-3.31-6.68-5.76c-1.67-2.45-2.9-5.2-3.67-8.27
		c-0.78-3.06-1.17-6.1-1.17-9.1c0-4.23,0.44-7.88,1.34-10.94c0.89-3.06,2.25-5.68,4.09-7.85s4.18-3.98,7.01-5.43
		c2.84-1.45,6.26-2.73,10.27-3.84l13.03-3.51c3.45-0.89,5.85-2.11,7.18-3.67c1.34-1.56,2-3.84,2-6.85c0-3.45-0.81-6.15-2.42-8.1
		c-1.62-1.95-4.37-2.92-8.27-2.92c-3.56,0-6.24,1.06-8.02,3.17c-1.78,2.12-2.67,4.96-2.67,8.52v2.51h-20.71V36.57z M195,59.04
		c-1.78,0.73-3.4,1.25-4.84,1.59c-4.68,1-8.02,2.67-10.02,5.01s-3.01,5.51-3.01,9.52c0,3.45,0.67,6.4,2,8.85
		c1.34,2.45,3.56,3.67,6.68,3.67c1.56,0,3.17-0.25,4.84-0.75c1.67-0.5,3.2-1.31,4.59-2.42c1.39-1.11,2.53-2.56,3.42-4.34
		c0.89-1.78,1.34-3.9,1.34-6.35v-17.7C198.45,57.34,196.78,58.31,195,59.04z"/>
	<path class="st0" d="M281.26,37.07c-0.28-2.11-0.78-4.03-1.5-5.76c-0.73-1.73-1.75-3.12-3.09-4.18c-1.34-1.06-3.12-1.59-5.34-1.59
		c-2.78,0-5.07,0.64-6.85,1.92c-1.78,1.28-3.12,3.17-4.01,5.68c-0.89,2.51-1.5,5.68-1.84,9.52s-0.5,8.38-0.5,13.61
		c0,5.57,0.17,10.33,0.5,14.28c0.33,3.95,0.94,7.21,1.84,9.77c0.89,2.56,2.14,4.43,3.76,5.6c1.61,1.17,3.7,1.75,6.26,1.75
		c3.9,0,6.74-1.67,8.52-5.01c1.78-3.34,2.67-8.69,2.67-16.03h22.05c0,11.8-2.65,20.79-7.93,26.97c-5.29,6.18-14.06,9.27-26.31,9.27
		c-5.79,0-10.83-0.7-15.12-2.09c-4.29-1.39-7.85-3.9-10.69-7.52c-2.84-3.62-4.98-8.46-6.43-14.53c-1.45-6.07-2.17-13.61-2.17-22.63
		c0-9.24,0.89-16.9,2.67-22.97c1.78-6.07,4.29-10.91,7.52-14.53c3.23-3.62,7.07-6.15,11.52-7.6c4.45-1.45,9.35-2.17,14.7-2.17
		c10.69,0,18.73,3.12,24.13,9.35c5.4,6.24,8.1,14.7,8.1,25.39h-22.05C281.68,41.36,281.54,39.19,281.26,37.07z"/>
	<path class="st0" d="M314.58,35.74c1.22-5.9,3.23-10.83,6.01-14.78c2.78-3.95,6.43-6.96,10.94-9.02
		c4.51-2.06,10.05-3.09,16.62-3.09c6.9-0.11,12.64,0.81,17.2,2.76c4.56,1.95,8.18,4.93,10.86,8.94c2.67,4.01,4.56,8.96,5.68,14.87
		c1.11,5.9,1.67,12.81,1.67,20.71c0,7.68-0.61,14.48-1.84,20.38c-1.23,5.9-3.23,10.83-6.01,14.78c-2.78,3.95-6.43,6.88-10.94,8.77
		s-10.05,2.84-16.62,2.84c-6.91,0.11-12.64-0.75-17.2-2.59c-4.57-1.84-8.18-4.73-10.86-8.69c-2.67-3.95-4.57-8.91-5.68-14.87
		c-1.11-5.96-1.67-12.83-1.67-20.63C312.75,48.43,313.36,41.64,314.58,35.74z M336.13,68.81c0.22,3.9,0.75,7.24,1.59,10.02
		c0.84,2.78,2.09,4.96,3.76,6.51c1.67,1.56,3.9,2.34,6.68,2.34c4.68,0,7.9-2.45,9.69-7.35c1.78-4.9,2.67-12.97,2.67-24.22
		c0-11.25-0.89-19.32-2.67-24.22c-1.78-4.9-5.01-7.35-9.69-7.35c-2.78,0-5.01,0.78-6.68,2.34c-1.67,1.56-2.92,3.73-3.76,6.51
		c-0.84,2.78-1.36,6.13-1.59,10.02c-0.22,3.9-0.33,8.13-0.33,12.69C335.8,60.68,335.91,64.91,336.13,68.81z"/>
</g>
</svg>
