<?xml version="1.0" encoding="utf-8"?>
<!-- Generator: Adobe Illustrator 23.0.4, SVG Export Plug-In . SVG Version: 6.00 Build 0)  -->
<svg version="1.1" id="Calque_1" xmlns="http://www.w3.org/2000/svg" xmlns:xlink="http://www.w3.org/1999/xlink" x="0px" y="0px"
	 viewBox="0 0 564.25 45.16" style="enable-background:new 0 0 564.25 45.16;" xml:space="preserve">
<style type="text/css">
	.st0{fill:#FFFFFF;}
	.st1{fill:#FF0000;}
</style>
<g>
	<path class="st0" d="M15.64,17.26v2.95h15.6v7.58h-15.6v10.57H6.06V9.68h25.19v7.58H15.64z"/>
	<path class="st0" d="M34.11,23.97c0-8.15,6.63-14.74,14.78-14.74s14.78,6.59,14.78,14.74c0,8.19-6.63,14.78-14.78,14.78
		S34.11,32.16,34.11,23.97z M54.18,23.97c0-2.91-2.38-5.28-5.28-5.28s-5.28,2.38-5.28,5.28c0,2.95,2.38,5.32,5.28,5.32
		S54.18,26.92,54.18,23.97z"/>
	<path class="st0" d="M80.84,27.74h-4.5v10.61h-9.58V9.68h20.27c5.82,0,9.34,3.36,9.34,9.09c0,3.81-2.54,6.88-5.94,8.23l6.88,11.34
		H86.9L80.84,27.74z M76.34,20.25h8.89c0.9,0,1.56-0.61,1.56-1.56c0-1.02-0.66-1.47-1.56-1.47h-8.89V20.25z"/>
	<path class="st0" d="M99.15,24.02c0-8.31,6.51-14.79,15.19-14.79c8.56,0,14.17,5.49,14.62,12.16h-9.17
		c-0.25-1.6-2.38-3.81-5.69-3.81s-6.1,2.38-6.1,6.27s2.91,6.47,5.98,6.47c2.38,0,4.01-0.82,5.08-2.54h-5.04v-3.03H129
		c-0.08,7.54-5.98,14.05-14.66,14.05C105.66,38.8,99.15,32.37,99.15,24.02z"/>
	<path class="st0" d="M131.66,23.97c0-8.15,6.63-14.74,14.78-14.74s14.78,6.59,14.78,14.74c0,8.19-6.63,14.78-14.78,14.78
		S131.66,32.16,131.66,23.97z M151.73,23.97c0-2.91-2.38-5.28-5.28-5.28s-5.28,2.38-5.28,5.28c0,2.95,2.38,5.32,5.28,5.32
		S151.73,26.92,151.73,23.97z"/>
	<path class="st0" d="M170.77,17.26h-8.52V9.68h26.62v7.58h-8.52v21.09h-9.58V17.26z"/>
	<path class="st0" d="M199.03,17.26h-8.52V9.68h26.62v7.58h-8.52v21.09h-9.58V17.26z"/>
	<path class="st0" d="M229.79,17.22v2.99h15.73v7.58h-15.73v3.03h15.73v7.54H220.2V9.68h25.31v7.54H229.79z"/>
	<path class="st0" d="M249.2,9.68h9.58l11.39,14.91h0.29V9.68h9.58v28.67h-9.58l-11.34-14.42h-0.33v14.42h-9.58V9.68z"/>
	<path class="st0" d="M295.39,9.68h9.58v28.67h-9.58V9.68z"/>
	<path class="st0" d="M308.87,9.68h9.58l11.38,14.91h0.29V9.68h9.58v28.67h-9.58l-11.34-14.42h-0.33v14.42h-9.58V9.68z"/>
	<path class="st0" d="M341.47,9.68h10.32l5.2,21.09h0.33l5.2-21.09h10.32l-7.95,28.67h-15.48L341.47,9.68z"/>
	<path class="st0" d="M384.59,17.22v2.99h15.73v7.58h-15.73v3.03h15.73v7.54h-25.31V9.68h25.31v7.54H384.59z"/>
	<path class="st0" d="M404,9.68h9.58l11.38,14.91h0.29V9.68h9.58v28.67h-9.58l-11.34-14.42h-0.33v14.42H404V9.68z"/>
	<path class="st0" d="M446.02,17.26h-8.52V9.68h26.62v7.58h-8.52v21.09h-9.58V17.26z"/>
	<path class="st0" d="M465.14,23.97c0-8.15,6.63-14.74,14.79-14.74c8.15,0,14.78,6.59,14.78,14.74c0,8.19-6.63,14.78-14.78,14.78
		C471.78,38.76,465.14,32.16,465.14,23.97z M485.21,23.97c0-2.91-2.38-5.28-5.28-5.28c-2.91,0-5.28,2.38-5.28,5.28
		c0,2.95,2.38,5.32,5.28,5.32C482.84,29.3,485.21,26.92,485.21,23.97z"/>
	<path class="st0" d="M511.87,27.74h-4.5v10.61h-9.58V9.68h20.27c5.82,0,9.34,3.36,9.34,9.09c0,3.81-2.54,6.88-5.94,8.23l6.88,11.34
		h-10.4L511.87,27.74z M507.37,20.25h8.89c0.9,0,1.56-0.61,1.56-1.56c0-1.02-0.66-1.47-1.56-1.47h-8.89V20.25z"/>
	<path class="st0" d="M530.51,30.77h14.95c1.27,0,1.88-0.57,1.88-1.52c0-0.9-0.61-1.47-1.92-1.47h-6.8c-4.79,0-8.68-3.28-8.68-9.05
		c0-6.63,4.55-9.05,9.13-9.05h16.96v7.58H541.4c-1.11,0-1.88,0.41-1.88,1.43c0,1.06,0.78,1.52,1.88,1.52h6.39
		c5.49,0,9.13,3.24,9.13,9.01c0,5.45-4.1,9.13-9.42,9.13h-17.12L530.51,30.77z"/>
</g>
<g>
	<path class="st1" d="M34.93,16.26h-2v-3.45h2V16.26z M34.93,9.81h-2V7.68h-1.87v-2h3.87V9.81z M28.06,7.68h-6v-2h6V7.68z"/>
</g>
<g>
	<path class="st1" d="M130.03,20.46l-0.07-1c-0.06-0.94-0.24-1.86-0.52-2.74l-0.3-0.95l1.9-0.61l0.31,0.95
		c0.33,1.04,0.54,2.12,0.61,3.22l0.07,1L130.03,20.46z M127.86,13.5l-0.65-0.76c-0.79-0.92-1.74-1.72-2.81-2.38l-0.85-0.53l1.05-1.7
		l0.85,0.53c1.24,0.77,2.34,1.7,3.27,2.77l0.65,0.76L127.86,13.5z M121.07,8.85l-0.98-0.22c-1.19-0.27-2.45-0.4-3.75-0.4h-1v-2h1
		c1.45,0,2.86,0.15,4.19,0.45l0.98,0.22L121.07,8.85z"/>
</g>
<g>
	<path class="st1" d="M211.62,38.35h-2V35.7h2V38.35z M211.62,31.7h-2v-6h2V31.7z M211.62,21.7h-2v-3.44h3.56v2h-1.56V21.7z
		 M217.18,20.26h-2v-2h2V20.26z"/>
</g>
<g>
	<path class="st1" d="M329.12,17.59h-2v-4h2V17.59z M329.12,10.59h-2V5.68h4.09v2h-2.09V10.59z M339.71,7.68h-4.49v-2h4.49V7.68z"/>
</g>
<g>
	<path class="st1" d="M445.02,29.99h-2v-4h2V29.99z M445.02,21.99h-2v-1.73h-1.27v-2h3.27V21.99z M439.75,20.26h-2.42v-2h2.42V20.26
		z"/>
</g>
<g>
	<path class="st1" d="M559.02,17.03h-2v-3h2V17.03z M559.02,11.03h-2V8.68h-1.65v-2h3.65V11.03z M552.37,8.68h-6v-2h6V8.68z
		 M542.37,8.68h-2v-2h2V8.68z"/>
</g>
</svg>
