<?xml version="1.0" encoding="utf-8"?>
<!-- Generator: Adobe Illustrator 23.0.4, SVG Export Plug-In . SVG Version: 6.00 Build 0)  -->
<svg version="1.1"
	 id="svg60071" xmlns:cc="http://creativecommons.org/ns#" xmlns:dc="http://purl.org/dc/elements/1.1/" xmlns:inkscape="http://www.inkscape.org/namespaces/inkscape" xmlns:rdf="http://www.w3.org/1999/02/22-rdf-syntax-ns#" xmlns:sodipodi="http://sodipodi.sourceforge.net/DTD/sodipodi-0.dtd" xmlns:svg="http://www.w3.org/2000/svg"
	 xmlns="http://www.w3.org/2000/svg" xmlns:xlink="http://www.w3.org/1999/xlink" x="0px" y="0px" viewBox="0 0 182.47 166"
	 style="enable-background:new 0 0 182.47 166;" xml:space="preserve">
<style type="text/css">
	.st0{fill:#FFC425;}
</style>
<title  id="title60114">McDonald&apos;s Canada</title>
<sodipodi:namedview  bordercolor="#666666" borderopacity="1.0" id="base" inkscape:current-layer="layer1" inkscape:cx="78.411436" inkscape:cy="74.701452" inkscape:document-units="px" inkscape:pageopacity="0.0" inkscape:pageshadow="2" inkscape:window-height="837" inkscape:window-maximized="1" inkscape:window-width="1600" inkscape:window-x="-8" inkscape:window-y="-8" inkscape:zoom="2.634649" pagecolor="#ffffff" showgrid="false">
	</sodipodi:namedview>
<g id="layer1" transform="translate(0,-886.3622)" inkscape:groupmode="layer" inkscape:label="Calque 1">
	<g id="g6224" transform="matrix(4.260777,0,0,-4.260777,-206.82645,3394.0591)">
		<g>
			<defs>
				<rect id="SVGID_1_" x="-997.8" y="-1291.27" width="2607.6" height="3374.54"/>
			</defs>
			<clipPath id="SVGID_2_">
				<use xlink:href="#SVGID_1_"  style="overflow:visible;"/>
			</clipPath>
		</g>
	</g>
</g>
<g id="g6226">
	<g id="g6232" transform="translate(77.8174,582.9043)">
		<path id="path6234" inkscape:connector-curvature="0" class="st0" d="M46.92-558.83c13.26,0,24.02,55.9,24.02,124.86h19.21
			c0-74.27-19.36-134.46-43.23-134.46c-13.57,0-25.67,18.1-33.6,46.39c-7.94-28.29-20.04-46.39-33.62-46.39
			c-23.87,0-43.21,60.2-43.21,134.46h19.2c0-68.96,10.74-124.86,24.01-124.86c13.26,0,24,51.6,24,115.26h19.21
			C22.91-507.23,33.67-558.83,46.92-558.83"/>
	</g>
</g>
</svg>
