<?xml version="1.0" encoding="utf-8"?>
<!-- Generator: Adobe Illustrator 23.0.4, SVG Export Plug-In . SVG Version: 6.00 Build 0)  -->
<svg version="1.1" id="Calque_1" xmlns="http://www.w3.org/2000/svg" xmlns:xlink="http://www.w3.org/1999/xlink" x="0px" y="0px"
	 viewBox="0 0 232.06 268.5" style="enable-background:new 0 0 232.06 268.5;" xml:space="preserve">
<style type="text/css">
	.st0{fill:#FFFFFF;}
</style>
<path class="st0" d="M123.87,217.92c-1.79,0-2.23-0.43-2.48-2.19c-1.29-9.06-2.59-18.12-3.92-27.18
	c-1.05-7.12-2.07-14.24-3.26-21.34c-1.06-6.35-2.32-12.66-3.5-18.99c-0.18-0.98-0.47-1.95-0.58-2.94c-0.23-2.11,1.2-3.44,3.25-3.25
	c9.79,0.89,19.27,3.38,28.86,5.34c4.07,0.83,8.15,1.71,12.26,2.27c3.74,0.5,7.46-0.05,10.87-1.75c3.85-1.92,5.89-5.23,6.4-9.41
	c0.81-6.66-1.42-12.04-7.09-15.81c-4.3-2.85-9.12-4.34-14.19-4.76c-8.21-0.68-16.43-1.1-24.66-1.54
	c-5.07-0.27-10.17-0.15-15.14-1.39c-0.43-0.11-0.86-0.19-1.28-0.33c-3.08-1.09-3.75-2.39-3.01-5.51c1.14-4.79,2.51-9.49,4.73-13.93
	c3.25-6.51,7.86-11.83,13.57-16.24c4.52-3.5,9.43-6.3,14.93-8.03c7.54-2.36,15.12-2.95,22.96-1.52c6.44,1.17,12.12,3.71,17.14,7.82
	c1.48,1.21,2.84,2.58,4.32,3.8c1.72,1.43,3.49,2.79,5.27,4.15c3.28,2.51,7.91,1.62,10.71-0.58c2.17-1.7,3.96-3.76,4.56-6.43
	c0.41-1.8,0.25-3.8,0-5.67c-0.92-6.92-4.85-12.05-10.09-16.31c-3.8-3.09-7.91-5.73-12.39-7.73c-7.17-3.2-14.74-4.49-22.56-4.26
	c-6.76,0.2-13.51,0.61-20.16,1.91c-10.83,2.12-21.1,5.67-29.92,12.54c-5.97,4.64-10.7,10.4-14.41,17.01
	c-3.9,6.96-6.37,14.46-8.6,22.07c-1.26,4.3-2.61,8.57-3.98,12.83c-0.53,1.63-1.75,2.55-3.46,2.41c-2.46-0.21-4.9-0.66-7.35-1.02
	c-0.59-0.09-1.19-0.2-1.76-0.37c-3.19-0.94-6.28-0.52-9.25,0.78c-3.15,1.37-6.35,2.74-8.2,5.94c-0.97,1.68-1.05,3.41-0.31,5.18
	c1.19,2.86,3.21,5.05,5.69,6.82c0.7,0.5,1.56,0.81,2.4,1.03c5.02,1.34,10.04,2.66,15.08,3.92c2.71,0.68,5.46,1.19,8.17,1.85
	c0.58,0.14,1.27,0.46,1.58,0.92c0.65,0.98,1.26,2.06,1.56,3.19c1.96,7.25,2.61,14.7,3.48,22.13c1.3,11.08,2.83,22.12,4.18,33.2
	c0.68,5.63,2.16,11.06,3.71,16.48c0.31,1.1,0.96,2.11,1.38,3.18c0.49,1.24,0.15,1.72-1.19,1.72c-25.4,0-78.35,0.02-79.43-0.01
	c-1.6-0.04-2.02-0.54-1.98-2.16c0.07-2.72,0.07-194.14,0.05-195.22c-0.02-1.4,0.41-1.82,1.76-1.81
	c14.36,0.08,193.17,0.08,195.08-0.04c1.62-0.11,2.27,0.39,2.26,2c-0.08,12.96-0.01,194.71,0,195.59c0.02,1.14-0.55,1.69-1.7,1.67
	C212.74,217.91,138.83,217.92,123.87,217.92z"/>
<path class="st0" d="M98.98,257.9c-0.02,1.28-0.42,2.05-1.37,2.48c-0.97,0.44-1.87,0.38-2.68-0.34c-1.67-1.47-2.18-3.53-2.56-5.56
	c-0.64-3.45-1.08-6.94-1.58-10.42c-0.21-1.45-0.89-1.72-2.12-0.86c-2.08,1.46-3.42,3.54-4.94,5.5c-1.06,1.37-2.26,2.75-3.69,3.69
	c-2.75,1.81-5.21,0.67-6.18-2.49c-1.02-3.36-2.12-6.69-3.27-10.01c-0.2-0.57-0.72-1.26-1.23-1.42c-0.35-0.11-1.03,0.56-1.44,0.99
	c-2.9,3.06-3.84,6.92-4.47,10.92c-0.23,1.46-0.47,2.93-0.84,4.35c-0.13,0.5-0.62,1.21-1.02,1.26c-0.56,0.07-1.34-0.24-1.75-0.65
	c-1.39-1.37-1.87-2.89-1.24-4.98c1.47-4.91,2.98-9.79,5.43-14.32c1.2-2.21,2.71-4.13,4.79-5.59c0.91-0.64,1.65-0.56,2.46,0.18
	c1.42,1.29,2.1,2.95,2.71,4.72c1.24,3.62,2.56,7.22,3.91,10.8c0.55,1.46,1.33,1.46,2.5,0.38c2.99-2.77,4.82-6.21,6.21-9.97
	c0.47-1.27,1.11-2.48,1.75-3.68c0.88-1.63,2.22-1.74,3.28-0.24c1.61,2.27,2.81,4.76,3.24,7.54c0.52,3.32,0.84,6.67,1.52,9.96
	c0.46,2.24,1.39,4.39,2.11,6.58C98.69,257.19,98.89,257.66,98.98,257.9z"/>
<path class="st0" d="M168.68,246.3c0.43,2.54,0.81,5.09,1.3,7.62c0.26,1.33-0.12,2.58-1.17,3.11c-1.05,0.53-2.14,0.22-2.97-1.02
	c-0.48-0.71-0.85-1.54-1.07-2.37c-0.51-1.89-0.88-3.81-1.35-5.71c-1.17-4.79,0.28-8.84,3.51-12.35c1.25-1.36,2.72-1.34,4.12-0.07
	c3.62,3.26,6.46,7.18,9.36,11.05c0.34,0.45,0.63,0.94,1.04,1.3c0.25,0.22,0.79,0.42,1.02,0.3c0.24-0.13,0.39-0.66,0.38-1.01
	c-0.09-3.83-0.21-7.65-0.33-11.48c-0.06-1.96,0.65-3.58,2.04-4.94c0.94-0.93,1.6-0.97,2.59-0.09c1.52,1.34,2.27,2.84,2,5.05
	c-0.54,4.35-0.67,8.74-1.12,13.11c-0.2,1.88-0.54,3.82-1.23,5.57c-0.94,2.35-2.69,2.67-4.68,1.11c-0.72-0.56-1.36-1.24-1.93-1.96
	c-2.98-3.8-5.93-7.63-8.89-11.45c-0.17-0.22-0.31-0.5-0.53-0.64c-0.35-0.21-0.82-0.53-1.13-0.43c-0.27,0.09-0.51,0.67-0.52,1.05
	c-0.06,1.39-0.02,2.79-0.02,4.19C168.95,246.26,168.82,246.28,168.68,246.3z"/>
<path class="st0" d="M144.83,257.3c-2.42,0.3-3.99-1.04-5.08-2.83c-0.83-1.36-1.42-2.97-1.72-4.54c-1.12-5.8,0.18-11.08,3.74-15.82
	c1.78-2.36,4.27-3.51,7.02-3.98c2.14-0.36,4,0.81,5.52,2.19c3.5,3.16,5.63,7.08,6.21,11.83c0.27,2.22-0.34,4.15-1.69,5.81
	C155.22,254.43,150.45,256.72,144.83,257.3z M147.84,251.53c1.5,0.3,2.64-0.48,3.66-1.61c1.58-1.74,2.47-3.84,2.86-6.1
	c0.41-2.4-0.23-4.63-1.91-6.43c-2.52-2.7-5.91-1.94-6.9,1.61c-0.51,1.83-0.59,3.77-0.96,5.64c-0.2,1.03-0.46,2.08-0.9,3.02
	c-0.42,0.88-0.45,1.56,0.2,2.29C144.92,251.13,146.19,251.66,147.84,251.53z"/>
<path class="st0" d="M125.43,257.26c-2.11,0.03-4.19-0.56-6.04-1.89c-1.46-1.04-2.12-2.45-1.97-4.24c0.1-1.18,0.81-1.69,1.77-1.01
	c2.35,1.66,5.09,1.79,7.75,2.26c2.13,0.38,3.37-0.69,3.43-2.87c0.04-1.59-0.52-2.95-1.91-3.77c-1.33-0.79-2.82-1.34-4.14-2.15
	c-1.35-0.83-2.68-1.73-3.84-2.8c-1.49-1.38-1.54-3.4-0.26-4.98c2.03-2.51,4.56-4.44,7.6-5.48c2.31-0.79,4.54,0.03,6.32,1.61
	c0.45,0.4,0.6,1.51,0.4,2.14c-0.13,0.4-1.15,0.67-1.79,0.73c-1.54,0.13-3.1,0.05-4.65,0.14c-0.5,0.03-1.01,0.25-1.47,0.48
	c-2.11,1.06-2.23,2.24-0.3,3.58c1.97,1.36,3.91,2.85,6.07,3.83c3.6,1.64,4.92,8.18,1.43,11.08
	C131.46,255.9,128.84,257.36,125.43,257.26z"/>
<path class="st0" d="M204.46,234.69c-1.84,0-3.7-0.05-5.31,1.06c-1.46,1-1.55,2.01-0.12,3.01c1.89,1.33,3.84,2.6,5.85,3.74
	c2.24,1.27,3.61,3.06,4.09,5.6c0.37,1.98-0.21,3.68-1.48,5.11c-3.83,4.3-10.15,5.54-15.18,2.03c-1.48-1.03-2.04-2.4-1.86-4.13
	c0.13-1.21,0.79-1.68,1.77-1.01c2.25,1.54,4.83,1.79,7.39,2.22c1.3,0.22,2.56,0.31,3.31-0.96c0.78-1.32,0.87-2.87-0.02-4.09
	c-0.72-0.99-1.82-1.77-2.88-2.42c-1.53-0.93-3.22-1.6-4.79-2.47c-0.61-0.34-1.16-0.86-1.62-1.4c-1.68-1.97-1.72-3.44-0.07-5.42
	c1.98-2.38,4.41-4.19,7.36-5.2c2.39-0.81,4.51,0.11,6.37,1.52c0.44,0.33,0.61,1.41,0.45,2.02c-0.11,0.4-1,0.7-1.59,0.85
	C205.61,234.88,205.02,234.72,204.46,234.69z"/>
<path class="st0" d="M30.49,257.26c-1.96,0.1-3.92-0.62-5.72-1.84c-1.5-1.01-2.09-2.47-2.05-4.23c0.03-1.24,0.82-1.78,1.82-1.07
	c2.2,1.58,4.77,1.73,7.27,2.2c1.27,0.24,2.52,0.34,3.3-0.97c0.78-1.3,0.78-2.68,0.1-4c-0.74-1.43-2.11-2.1-3.49-2.79
	c-1.78-0.89-3.67-1.69-5.16-2.95c-2.48-2.11-2.38-4.33-0.18-6.72c1.82-1.98,3.98-3.46,6.47-4.43c2.42-0.94,4.55-0.04,6.54,1.26
	c0.83,0.55,0.89,1.49,0.54,2.38c-0.34,0.85-1.12,0.72-1.85,0.72c-1.59,0.01-3.18,0.04-4.77,0.12c-0.46,0.02-0.95,0.21-1.36,0.42
	c-2.32,1.19-2.05,2.63-0.38,3.64c2.05,1.24,4.01,2.63,6.08,3.84c4.15,2.45,4.77,8.08,1.19,11.3
	C36.66,256.14,33.68,257.27,30.49,257.26z"/>
<path class="st0" d="M99.61,242.01c-0.04-0.62-0.07-1.14-0.12-1.66c-0.38-4.02,1.51-6.83,4.79-8.85c3.4-2.09,5.22-1.97,8.13,0.78
	c1.32,1.24,2.46,2.75,3.39,4.31c1.45,2.45,0.59,5.73-1.76,7.8c-1.55,1.36-3.35,2.21-5.36,2.49c-0.79,0.11-1.65-0.09-2.45-0.29
	c-1.21-0.31-1.54-0.01-1.35,1.22c0.32,2.05,0.56,4.1,0.83,6.15c0.03,0.2,0.02,0.4,0,0.6c-0.12,1.06-0.01,2.27-1.37,2.64
	c-1.14,0.31-2.35-0.33-2.82-1.85c-1.26-4.01-2.15-8.11-1.97-12.36C99.56,242.63,99.59,242.27,99.61,242.01z M108.23,234.98
	c-3.07-0.04-4.43,1.46-4.12,4.27c0.07,0.63,0.1,1.27,0.13,1.91c0.05,0.97,0.59,1.53,1.5,1.78c2.57,0.72,5.68-0.62,6.78-3.03
	c0.25-0.55,0.33-1.4,0.08-1.91C111.66,236.17,110.28,234.83,108.23,234.98z"/>
<path class="st0" d="M48.28,231.07c1.24-0.24,2.48-0.5,3.73-0.72c0.86-0.15,1.74-0.37,2.6-0.33c0.48,0.02,1.29,0.47,1.33,0.8
	c0.06,0.5-0.29,1.22-0.7,1.57c-0.56,0.47-1.36,0.65-2.04,0.98c-1.21,0.59-1.74,1.57-1.66,2.92c0.25,4.39,0.46,8.78,0.71,13.17
	c0.11,2.01,0.5,2.47,2.41,3.03c1.34,0.39,1.89,1.2,1.62,2.36c-0.33,1.38-1.72,2.58-2.84,2.17c-1.78-0.65-3.54-0.3-5.32-0.37
	c-1.01-0.04-2.08-0.5-2.96-1.04c-0.45-0.27-0.79-1.17-0.71-1.73c0.06-0.47,0.73-1,1.25-1.22c0.55-0.24,1.25-0.17,1.88-0.21
	c1.31-0.07,1.8-0.51,1.69-1.77c-0.39-4.33,0.08-8.73-1.09-13c-0.12-0.43,0.03-0.95,0.11-1.41c0.26-1.45-0.19-1.93-1.67-1.75
	c-0.79,0.09-1.59,0.22-2.38,0.25c-0.67,0.02-1.46,0.08-1.63-0.83c-0.18-0.91,0.1-1.73,1.03-2.05c1.49-0.51,3.01-0.91,4.52-1.35
	C48.19,230.71,48.23,230.89,48.28,231.07z"/>
</svg>
