<?xml version="1.0" encoding="utf-8"?>
<!-- Generator: Adobe Illustrator 23.0.4, SVG Export Plug-In . SVG Version: 6.00 Build 0)  -->
<svg version="1.1" id="Calque_1" xmlns="http://www.w3.org/2000/svg" xmlns:xlink="http://www.w3.org/1999/xlink" x="0px" y="0px"
	 viewBox="0 0 197.76 75.85" style="enable-background:new 0 0 197.76 75.85;" xml:space="preserve">
<style type="text/css">
	.st0{fill:#FFFFFF;}
</style>
<g id="_x31_A8Jc9.tif">
	<g>
		<path class="st0" d="M10.07,41.35c-0.2,0-0.43,0-0.7,0c-0.09-0.1-0.2-0.23-0.34-0.39C9.01,40.5,9,40.01,9.2,39.54
			c0.04-0.1,0.03-0.24,0.03-0.36c0-2.65,0.02-5.3-0.01-7.94c-0.01-0.46-0.04-0.94-0.17-1.4c-0.06-0.21-0.01-0.45-0.01-0.72
			c0.1-0.09,0.23-0.21,0.36-0.33c0.23-0.03,0.46,0.01,0.69,0.07c0.31,0.08,0.4,0.3,0.49,0.53c0.07,0.17,0.11,0.36,0.1,0.54
			c-0.02,0.6,0.21,1.16,0.33,1.73c0.18,0.91,0.52,1.77,0.97,2.58c0.23,0.42,0.49,0.82,0.83,1.16c0.25,0.25,0.47,0.55,0.72,0.81
			c0.54,0.55,1.18,0.97,1.82,1.39c0.6,0.4,1.27,0.61,1.92,0.88c0.34,0.14,0.72,0.16,1.07,0.26c0.37,0.11,0.76,0.04,1.11,0.12
			c0.58,0.13,1.16,0.08,1.74,0.08c1.22-0.01,2.36-0.32,3.42-0.93c0.16-0.09,0.31-0.2,0.46-0.32c0.44-0.36,0.88-0.71,1.19-1.18
			c0.2-0.29,0.42-0.58,0.58-0.89c0.16-0.31,0.27-0.65,0.37-0.98c0.18-0.6,0.18-1.24,0.09-1.84c-0.12-0.79-0.38-1.57-0.91-2.21
			c-0.33-0.39-0.62-0.82-0.99-1.18c-0.78-0.76-1.63-1.44-2.62-1.93c-0.39-0.19-0.75-0.46-1.13-0.68c-0.26-0.15-0.54-0.28-0.8-0.43
			c-0.58-0.32-1.12-0.69-1.71-0.98c-0.53-0.26-1.02-0.59-1.53-0.9c-0.98-0.59-1.95-1.22-2.95-1.78c-0.7-0.39-1.3-0.92-1.95-1.37
			c-0.23-0.15-0.4-0.38-0.6-0.57c-0.2-0.19-0.38-0.4-0.59-0.58c-0.73-0.64-1.3-1.41-1.78-2.24c-0.26-0.44-0.41-0.95-0.57-1.45
			c-0.17-0.51-0.36-1.02-0.4-1.55c-0.04-0.64-0.08-1.29,0.06-1.95c0.15-0.74,0.37-1.45,0.61-2.17c0.32-0.98,0.9-1.77,1.55-2.53
			c0.19-0.22,0.42-0.41,0.62-0.63c0.82-0.89,1.86-1.48,2.93-1.99c0.5-0.24,1.02-0.44,1.54-0.59c0.59-0.18,1.2-0.33,1.83-0.32
			c0.71,0.01,1.42,0.01,2.13,0c0.79-0.02,1.53,0.16,2.28,0.4c0.64,0.2,1.28,0.38,1.9,0.64c0.54,0.23,1.09,0.44,1.63,0.65
			c0.37,0.15,0.74,0.29,1.16,0.3c0.55,0.01,1.07-0.35,1.26-0.91c0.07-0.2,0.14-0.41,0.21-0.62c0.15-0.45,0.3-0.56,0.78-0.56
			c0.12,0,0.24,0,0.4,0c0.45,0.34,0.41,0.83,0.35,1.32c-0.02,0.15-0.07,0.3-0.07,0.45c0,2.94,0,5.88,0,8.83
			c0,0.39,0.15,0.77,0.11,1.17c-0.03,0.28-0.01,0.56-0.31,0.7c-0.37,0.17-0.76,0.09-1.03-0.13c-0.27-0.22-0.3-0.54-0.31-0.83
			c-0.06-1.75-0.63-3.33-1.47-4.83c-0.42-0.75-0.93-1.45-1.6-1.98c-1.04-0.82-2.15-1.5-3.43-1.89c-0.62-0.19-1.24-0.31-1.89-0.31
			c-0.2,0-0.4,0.05-0.61-0.07c-0.08-0.05-0.25,0.06-0.38,0.07c-0.28,0.01-0.55,0.01-0.83,0c-0.47-0.01-0.89,0.1-1.32,0.3
			c-0.43,0.2-0.87,0.35-1.26,0.63c-0.01,0.01-0.04,0-0.05,0.01c-0.98,0.82-1.82,1.74-2.17,3c-0.12,0.42-0.31,0.87-0.08,1.33
			c0.05,0.1,0.02,0.24,0.01,0.36c-0.03,0.3,0.07,0.56,0.18,0.83c0.4,0.99,1.08,1.77,1.87,2.47c0.17,0.16,0.39,0.26,0.59,0.4
			c0.68,0.47,1.35,0.96,2.05,1.42c0.48,0.32,0.98,0.6,1.48,0.88c0.79,0.45,1.6,0.88,2.4,1.33c0.91,0.52,1.84,1,2.73,1.55
			c0.57,0.35,1.19,0.64,1.76,1c0.6,0.38,1.21,0.75,1.76,1.21c0.51,0.43,1.05,0.83,1.5,1.32c0.58,0.63,1.09,1.31,1.52,2.04
			c0.09,0.14,0.15,0.3,0.25,0.44c0.29,0.41,0.36,0.9,0.49,1.37c0.1,0.33,0.19,0.67,0.25,1.02c0.1,0.6,0.25,1.21,0.16,1.82
			c-0.08,0.56-0.11,1.13-0.28,1.69c-0.17,0.54-0.3,1.1-0.54,1.62c-0.22,0.47-0.48,0.93-0.77,1.36c-0.39,0.58-0.86,1.1-1.36,1.6
			c-0.6,0.6-1.29,1.07-1.99,1.51c-0.52,0.33-1.09,0.6-1.67,0.83c-0.57,0.23-1.17,0.39-1.76,0.57c-0.26,0.08-0.52,0.14-0.78,0.17
			c-0.47,0.05-0.95,0.08-1.43,0.1c-0.15,0.01-0.3-0.05-0.45-0.07c-0.17-0.02-0.36-0.07-0.51-0.02c-0.37,0.12-0.73,0.14-1.09-0.01
			c-0.04-0.02-0.1-0.01-0.15,0c-0.72,0.04-1.39-0.18-2.07-0.41c-0.82-0.27-1.66-0.49-2.49-0.74c-0.45-0.14-0.88-0.33-1.33-0.45
			c-0.56-0.15-1.12-0.37-1.71-0.38c-0.59-0.01-1.01,0.29-1.2,0.84c-0.05,0.16-0.06,0.33-0.11,0.49
			C10.49,40.9,10.39,41.19,10.07,41.35z"/>
		<path class="st0" d="M126.07,39.77c0.14-0.23,0.32-0.31,0.57-0.3c0.36,0.02,0.73-0.01,1.09,0.01c0.55,0.02,1.04-0.16,1.48-0.43
			c0.36-0.23,0.58-0.6,0.7-1.03c0.09-0.3,0.07-0.61,0.1-0.91c0.2-2.22,0.06-4.45,0.09-6.67c0.03-2.25,0.01-4.5,0.01-6.75
			c0-2.23,0-4.47,0-6.7c0-0.29-0.07-0.57-0.09-0.86c-0.02-0.29,0.03-0.59-0.02-0.88c-0.08-0.52-0.32-0.97-0.75-1.29
			c-0.42-0.31-0.88-0.5-1.42-0.45c-0.33,0.03-0.66,0.02-0.99,0c-0.29-0.02-0.57-0.08-0.77-0.36c0-0.19,0-0.39,0-0.61
			c0.13-0.21,0.33-0.29,0.6-0.27c0.54,0.05,1.09,0.1,1.63,0.1c3.77,0.01,7.55,0.01,11.32,0.01c0.65,0,1.3,0.1,1.95,0.12
			c0.35,0.01,0.71,0.06,1.06,0.08c0.22,0.01,0.44,0.04,0.65,0.11c0.47,0.15,0.96,0.11,1.42,0.3c0.45,0.18,0.93,0.27,1.39,0.43
			c0.6,0.21,1.21,0.39,1.77,0.72c0.66,0.38,1.33,0.76,1.88,1.29c0.3,0.29,0.63,0.53,0.91,0.83c0.81,0.83,1.5,1.75,2.07,2.78
			c0.4,0.73,0.73,1.47,1,2.25c0.21,0.62,0.35,1.25,0.49,1.89c0.09,0.45,0.17,0.89,0.23,1.34c0.05,0.41,0.07,0.81,0.09,1.22
			c0.01,0.2,0.12,0.41,0.08,0.59c-0.13,0.57-0.02,1.15-0.18,1.72c-0.08,0.29-0.03,0.6-0.11,0.91c-0.17,0.68-0.3,1.37-0.49,2.05
			c-0.21,0.71-0.43,1.42-0.78,2.07c-0.57,1.06-1.18,2.11-2.07,2.95c-0.17,0.16-0.29,0.38-0.46,0.54c-1,0.93-2.06,1.78-3.3,2.36
			c-0.41,0.19-0.82,0.38-1.26,0.52c-0.61,0.19-1.17,0.49-1.81,0.6c-0.48,0.08-0.97,0.14-1.43,0.28c-0.39,0.12-0.82,0-1.19,0.19
			c-0.01,0.01-0.03,0-0.05,0c-0.58,0.03-1.16,0.09-1.74,0.1c-1.04,0.02-2.08,0.02-3.12,0c-0.53-0.01-1.05-0.16-1.58-0.08
			c-1.32,0.19-2.65,0.05-3.97,0.09c-0.35,0.01-0.71-0.1-1.06-0.08c-0.43,0.03-0.87,0.05-1.3,0.17c-0.03,0.01-0.07,0.02-0.1,0.02
			c-0.54,0.04-1.09,0.07-1.63,0.11c-0.19,0.01-0.37-0.04-0.54-0.1c-0.3-0.11-0.37-0.2-0.38-0.52
			C126.07,40.06,126.07,39.91,126.07,39.77z M134.38,14.84c0,0.13,0,0.27,0,0.4c0,3.94,0,7.89,0,11.83c0,3.25,0,6.5,0,9.76
			c0,0.25,0.05,0.5-0.08,0.76c-0.09,0.17,0.1,0.75,0.36,0.84c0.17,0.06,0.36,0.09,0.54,0.12c0.3,0.05,0.62,0.03,0.9,0.13
			c0.62,0.23,1.27,0.2,1.9,0.26c1.14,0.11,2.28,0.01,3.39-0.29c0.68-0.18,1.37-0.34,1.98-0.7c0.29-0.17,0.56-0.38,0.86-0.53
			c0.43-0.21,0.82-0.49,1.17-0.8c0.82-0.75,1.6-1.54,2.15-2.53c0.46-0.81,0.87-1.63,1.18-2.51c0.14-0.41,0.25-0.83,0.37-1.25
			c0.22-0.75,0.33-1.52,0.33-2.29c0.01-1.25,0.12-2.51-0.08-3.76c-0.05-0.32-0.03-0.64-0.1-0.96c-0.11-0.54-0.25-1.07-0.39-1.61
			c-0.19-0.7-0.53-1.34-0.83-2c-0.36-0.77-0.88-1.42-1.44-2.03c-0.56-0.6-1.15-1.18-1.78-1.72c-0.59-0.5-1.26-0.85-1.95-1.17
			c-0.39-0.18-0.83-0.25-1.25-0.36c-0.4-0.1-0.81-0.25-1.22-0.27c-0.44-0.02-0.88-0.1-1.32-0.12c-0.94-0.03-1.87,0-2.8,0.2
			c-0.18,0.04-0.36,0.09-0.54,0.1c-0.31,0.02-0.59,0.11-0.88,0.19C134.64,14.58,134.5,14.68,134.38,14.84z"/>
		<path class="st0" d="M55.35,11.65c0.16,0,0.31,0.01,0.47,0c0.82-0.04,1.61,0.18,2.4,0.35c0.5,0.11,1,0.28,1.49,0.43
			c0.87,0.28,1.68,0.69,2.44,1.19c0.66,0.43,1.28,0.9,1.85,1.43c0.26,0.24,0.55,0.46,0.81,0.71c0.62,0.61,1.12,1.33,1.65,2.02
			c0.39,0.51,0.76,1.05,1.02,1.63c0.32,0.72,0.57,1.47,0.84,2.2c0.28,0.74,0.36,1.53,0.62,2.27c0.01,0.03,0,0.07,0,0.1
			c0.03,0.56,0.08,1.12,0.1,1.69c0.02,0.55,0.06,1.11-0.01,1.66c-0.06,0.5-0.03,0.99-0.1,1.48c-0.06,0.48-0.23,0.94-0.34,1.41
			c-0.21,0.95-0.57,1.86-0.92,2.76c-0.16,0.42-0.41,0.82-0.65,1.2c-0.42,0.66-0.78,1.35-1.29,1.95c-0.46,0.55-0.9,1.1-1.46,1.57
			c-0.77,0.65-1.59,1.22-2.42,1.77c-0.54,0.35-1.09,0.65-1.7,0.87c-0.65,0.22-1.29,0.45-1.95,0.63c-0.52,0.14-1.03,0.29-1.58,0.29
			c-0.13,0-0.26,0.06-0.39,0.08c-0.1,0.02-0.22,0.04-0.3,0.01c-0.49-0.17-0.99-0.06-1.48-0.09c-0.07,0-0.14,0-0.21,0
			c-1.12,0.07-2.18-0.2-3.22-0.55c-0.59-0.2-1.18-0.4-1.72-0.7c-0.96-0.54-1.91-1.08-2.77-1.78c-1.18-0.96-2.15-2.09-2.92-3.4
			c-0.24-0.41-0.49-0.81-0.71-1.23c-0.1-0.19-0.2-0.38-0.24-0.61c-0.05-0.29-0.2-0.57-0.33-0.84c-0.3-0.59-0.42-1.24-0.58-1.87
			c-0.12-0.49-0.17-1-0.24-1.5c-0.1-0.69-0.06-1.37-0.08-2.05c-0.02-0.67-0.04-1.35,0.01-2.02c0.07-0.9,0.18-1.8,0.5-2.67
			c0.23-0.61,0.47-1.22,0.65-1.84c0.27-0.93,0.85-1.68,1.36-2.47c0.35-0.54,0.83-1,1.25-1.5c0.14-0.17,0.26-0.36,0.42-0.51
			c0.31-0.29,0.64-0.57,0.97-0.84c0.18-0.15,0.38-0.28,0.57-0.43c0.96-0.76,2.08-1.25,3.17-1.79c0.45-0.22,0.95-0.33,1.43-0.46
			c0.45-0.13,0.91-0.23,1.36-0.33c0.63-0.14,1.27-0.25,1.92-0.21C55.14,11.65,55.25,11.65,55.35,11.65z M55.22,39.59
			c0.61-0.01,1.28,0,1.95-0.18c0.5-0.13,1.02-0.25,1.47-0.5c1.09-0.61,2.07-1.36,2.84-2.38c0.66-0.87,1.21-1.79,1.54-2.83
			c0.21-0.64,0.4-1.28,0.52-1.93c0.12-0.65,0.1-1.32,0.2-1.97c0.07-0.4,0.03-0.81,0.1-1.22c0.08-0.48,0.06-0.98,0.1-1.48
			c0.05-0.71-0.01-1.44-0.1-2.15c-0.04-0.27-0.06-0.54-0.08-0.8c-0.03-0.29-0.1-0.57-0.09-0.85c0.01-0.82-0.13-1.62-0.32-2.41
			c-0.22-0.91-0.52-1.8-0.92-2.65c-0.36-0.75-0.7-1.51-1.26-2.13c-0.42-0.46-0.81-0.96-1.31-1.32c-0.82-0.58-1.69-1.08-2.75-1.19
			c-0.53-0.05-1.06-0.2-1.61-0.19c-0.58,0.01-1.16,0.03-1.74,0.08c-0.9,0.08-1.71,0.38-2.48,0.77c-0.85,0.43-1.49,1.17-2.1,1.88
			c-0.49,0.57-0.83,1.26-1.19,1.93c-0.37,0.68-0.6,1.42-0.81,2.16c-0.17,0.59-0.24,1.22-0.33,1.83c-0.06,0.37-0.03,0.75-0.13,1.11
			c-0.06,0.22-0.07,0.43-0.09,0.65c-0.02,0.23-0.1,0.47-0.09,0.7c0.04,1.36-0.12,2.72,0.09,4.07c0.07,0.45,0.08,0.91,0.11,1.37
			c0,0.03-0.01,0.07,0.01,0.1c0.17,0.34,0.1,0.73,0.19,1.09c0.11,0.44,0.11,0.91,0.26,1.33c0.32,0.91,0.57,1.85,1.07,2.7
			c0.68,1.15,1.42,2.23,2.48,3.07c1.09,0.86,2.32,1.27,3.69,1.32C54.67,39.59,54.91,39.59,55.22,39.59z"/>
		<path class="st0" d="M170.06,39.38c0.13,0.13,0.25,0.25,0.36,0.37c0,0.24,0,0.46,0,0.72c-0.29,0.3-0.63,0.46-1.07,0.29
			c-0.06-0.02-0.13-0.03-0.2-0.03c-0.56,0.01-1.11-0.14-1.66-0.19c-0.61-0.04-1.22-0.07-1.84,0.05c-0.44,0.09-0.92,0.1-1.38-0.04
			c-0.06-0.02-0.15-0.05-0.19-0.03c-0.27,0.16-0.57,0.07-0.86,0.09c-0.46,0.04-0.92,0.07-1.37,0.11c-0.25,0.02-0.47-0.05-0.66-0.25
			c0-0.23,0-0.47,0-0.73c0.18-0.25,0.44-0.36,0.77-0.37c0.89-0.04,1.6-0.4,2.14-1.16c0.65-0.92,1.13-1.91,1.57-2.94
			c0.31-0.73,0.69-1.42,0.97-2.16c0.22-0.58,0.54-1.12,0.67-1.73c0.02-0.11,0.11-0.21,0.16-0.32c0.32-0.68,0.6-1.39,0.89-2.08
			c0.41-0.97,0.77-1.97,1.23-2.92c0.39-0.82,0.7-1.67,1.06-2.5c0.25-0.59,0.53-1.16,0.78-1.75c0.27-0.65,0.5-1.31,0.77-1.96
			c0.22-0.53,0.46-1.05,0.69-1.57c0.4-0.91,0.8-1.81,1.18-2.73c0.24-0.57,0.44-1.16,0.7-1.72c0.26-0.56,0.53-1.12,0.68-1.73
			c0.01-0.06,0.05-0.13,0.08-0.18c0.23-0.36,0.65-0.4,0.99-0.14c0.38,0.29,0.51,0.73,0.63,1.14c0.16,0.53,0.38,1.04,0.59,1.55
			c0.29,0.7,0.63,1.37,0.89,2.08c0.25,0.68,0.55,1.34,0.83,2c0.24,0.57,0.48,1.15,0.73,1.72c0.19,0.43,0.41,0.85,0.58,1.29
			c0.34,0.84,0.65,1.69,0.98,2.53c0.13,0.33,0.27,0.65,0.41,0.97c0.5,1.16,1.04,2.29,1.49,3.48c0.4,1.05,0.81,2.09,1.26,3.12
			c0.26,0.62,0.53,1.23,0.79,1.85c0.35,0.83,0.69,1.68,1.06,2.5c0.31,0.69,0.65,1.37,1.07,2c0.3,0.45,0.68,0.86,1.18,1.09
			c0.3,0.14,0.61,0.28,0.96,0.28c0.19,0,0.38-0.01,0.57,0c0.39,0.02,0.63,0.25,0.66,0.63c0.05,0.64-0.31,0.92-0.95,0.76
			c-0.26-0.06-0.53-0.11-0.79-0.14c-0.73-0.09-1.47-0.18-2.2-0.1c-1.72,0.19-3.44,0.02-5.16,0.1c-0.53,0.03-1.05,0.12-1.58,0.1
			c-0.15-0.01-0.31,0-0.48,0c-0.12-0.12-0.24-0.25-0.36-0.38c0-0.14,0.01-0.28,0-0.42c-0.01-0.25,0.13-0.37,0.33-0.46
			c0.29-0.13,0.6-0.11,0.91-0.1c0.33,0.02,0.63-0.07,0.93-0.21c0.68-0.32,0.92-0.87,0.77-1.61c-0.07-0.34-0.09-0.7-0.21-1.03
			c-0.26-0.71-0.52-1.41-0.83-2.1c-0.4-0.87-0.7-1.79-1.16-2.63c-0.12-0.22-0.28-0.42-0.42-0.64c-0.53,0.07-1.02-0.08-1.51,0.1
			c-0.15,0.05-0.36-0.08-0.54-0.08c-2.54-0.01-5.09,0-7.63-0.01c-0.39,0-0.65,0.14-0.79,0.5c-0.31,0.78-0.62,1.55-0.95,2.33
			c-0.19,0.45-0.41,0.88-0.61,1.33c-0.37,0.79-0.56,1.64-0.82,2.47c-0.03,0.1,0.01,0.24,0.04,0.35c0.21,0.68,0.68,1.02,1.38,1.16
			C169.03,39.38,169.52,39.35,170.06,39.38z M175.3,19.03c-0.58,0-0.61,0.02-0.76,0.49c-0.03,0.11-0.04,0.23-0.07,0.34
			c-0.07,0.28-0.1,0.57-0.22,0.82c-0.35,0.73-0.7,1.45-1,2.2c-0.38,0.93-0.81,1.84-1.21,2.77c-0.19,0.45-0.35,0.9-0.53,1.35
			c-0.19,0.49-0.34,0.98-0.73,1.37c-0.09,0.09-0.12,0.24-0.18,0.36c-0.14,0.31,0.01,0.62,0.34,0.67c0.17,0.02,0.37,0.06,0.51-0.01
			c0.25-0.12,0.5-0.09,0.76-0.09c1.63,0,3.25,0,4.88,0c0.15,0,0.32,0.02,0.45-0.04c0.2-0.09,0.35-0.04,0.53,0.03
			c0.25,0.1,0.52,0.14,0.8,0.12c0.38-0.03,0.56-0.28,0.41-0.62c-0.1-0.23-0.24-0.45-0.35-0.67c-0.11-0.21-0.25-0.41-0.31-0.63
			c-0.41-1.44-1.1-2.77-1.66-4.15c-0.4-1-0.87-1.97-1.29-2.95c-0.07-0.17-0.12-0.35-0.17-0.52
			C175.44,19.59,175.37,19.31,175.3,19.03z"/>
		<path class="st0" d="M76.23,40.44c-0.01-0.69-0.01-0.69,0.29-0.96c0.41,0,0.82,0.01,1.24,0c0.34-0.02,0.68-0.03,1.01-0.12
			c0.81-0.23,1.36-1.05,1.43-1.79c0.17-1.98,0.05-3.96,0.08-5.95c0.03-1.99,0.01-3.98,0.01-5.97c0-2.92,0-5.85-0.01-8.77
			c0-0.58-0.06-1.16-0.1-1.74c-0.02-0.29-0.17-0.55-0.35-0.77c-0.43-0.54-0.99-0.88-1.71-0.86c-0.36,0.01-0.73,0.01-1.09,0
			c-0.31-0.01-0.6-0.09-0.79-0.38c0.01-0.31-0.12-0.67,0.3-0.87c0.85,0.03,1.73,0.1,2.6,0.1c2.75,0.01,5.5,0,8.25,0
			c0.46,0,0.91-0.15,1.38-0.11c0.23,0.02,0.4,0.07,0.53,0.27c0.08,0.39,0,0.73-0.3,0.95c-0.25,0.05-0.45,0.09-0.65,0.12
			c-0.06,0.01-0.12-0.02-0.18-0.03c-0.39-0.06-0.78-0.09-1.16,0.03c-0.06,0.02-0.13,0.03-0.2,0.03c-0.65-0.03-1.15,0.32-1.56,0.74
			c-0.38,0.38-0.59,0.9-0.59,1.47c0,3.67,0,7.34,0,11.01c0,3.36,0,6.71,0,10.07c0,0.84,0.45,1.45,1.25,1.7
			c0.06,0.02,0.13,0.04,0.19,0.05c0.02,0,0.03,0,0.05,0c1.36-0.07,2.72,0.17,4.07,0.09c1.05-0.06,2.09-0.06,3.14-0.1
			c0.49-0.02,0.97-0.11,1.45-0.21c0.24-0.05,0.47-0.18,0.7-0.28c0.59-0.27,1.12-0.64,1.58-1.09c0.35-0.34,0.67-0.73,0.94-1.15
			c0.45-0.69,0.87-1.4,1.08-2.21c0.11-0.43,0.36-0.76,0.69-1.07c0.19,0,0.4-0.01,0.6,0c0.16,0.01,0.24,0.1,0.26,0.26
			c0.06,0.37-0.09,0.72-0.23,1.02c-0.53,1.09-0.84,2.25-1.22,3.39c-0.22,0.68-0.44,1.37-0.66,2.05c-0.05,0.16-0.1,0.32-0.15,0.48
			c-0.15,0.46-0.15,0.46-0.51,0.79c-0.46,0-0.93,0.02-1.4-0.01c-0.35-0.02-0.7-0.13-1.06-0.09c-0.18,0.02-0.36,0.02-0.55,0.07
			c-0.23,0.07-0.5-0.01-0.76-0.02c-0.25-0.01-0.53-0.1-0.76-0.03c-0.21,0.06-0.4,0.07-0.6,0.07c-2.02,0-4.05,0-6.07,0
			c-0.22,0-0.43,0.03-0.65-0.08c-0.15-0.07-0.4-0.07-0.56,0c-0.22,0.11-0.44,0.08-0.65,0.08c-1.06,0.01-2.11,0.01-3.17,0
			c-0.44-0.01-0.89-0.12-1.32-0.08c-0.52,0.04-1.04,0.08-1.56,0.17c-0.6,0.1-1.22,0.12-1.84,0.11
			C76.66,40.82,76.37,40.73,76.23,40.44z"/>
		<path class="st0" d="M107.51,12.26c0.82,0.04,1.59,0.11,2.36,0.11c2.65,0.01,5.3,0.01,7.94,0c0.54,0,1.09-0.08,1.66-0.13
			c0.1,0.11,0.2,0.21,0.27,0.28c0,0.23,0,0.42,0,0.61c-0.2,0.29-0.48,0.41-0.83,0.39c-0.38-0.02-0.76-0.02-1.14,0
			c-0.83,0.03-1.6,0.5-1.94,1.38c-0.01,0.03-0.03,0.06-0.03,0.1c-0.04,0.39-0.1,0.78-0.1,1.17c-0.01,7.01,0,14.02-0.01,21.02
			c0,0.31,0.02,0.61,0.11,0.91c0.03,0.1,0.05,0.2,0.11,0.28c0.45,0.59,0.99,1.02,1.79,1.02c0.27,0,0.53,0.07,0.8,0.09
			c0.28,0.02,0.55,0,0.86,0c0.12,0.12,0.26,0.25,0.38,0.36c0,0.21,0,0.41,0,0.6c-0.2,0.3-0.47,0.42-0.83,0.39
			c-0.32-0.03-0.64-0.07-0.96-0.1c-0.3-0.03-0.62,0.08-0.91-0.1c-0.74-0.02-1.47-0.22-2.2-0.09c-0.88,0.15-1.75,0.07-2.62,0.07
			c-0.33,0-0.67-0.13-1.01-0.08c-0.43,0.06-0.87,0.11-1.3,0.17c-0.64,0.1-1.29,0.11-1.94,0.12c-0.26,0-0.53-0.1-0.69-0.36
			c-0.18-0.29-0.15-0.57,0.09-0.82c0.05-0.05,0.1-0.1,0.17-0.16c0.38,0,0.78,0.02,1.18,0c0.37-0.02,0.75-0.04,1.11-0.13
			c0.55-0.14,0.92-0.52,1.2-1.02c0.18-0.31,0.17-0.64,0.29-0.96c0.12-0.32,0.11-0.66,0.11-1.01c0-6.54,0-13.08-0.02-19.62
			c0-0.63-0.03-1.28-0.29-1.89c-0.17-0.4-0.41-0.73-0.8-0.95c-0.47-0.27-0.95-0.44-1.5-0.39c-0.26,0.02-0.52,0.03-0.78,0
			c-0.3-0.03-0.6-0.08-0.77-0.39c-0.16-0.29-0.15-0.42,0.09-0.68C107.41,12.39,107.45,12.33,107.51,12.26z"/>
		<path class="st0" d="M163.06,60.11c-0.33,0.26-0.22,0.55-0.2,0.81c0.02,0.28,0.14,0.55,0.18,0.83c0.1,0.73,0.2,1.48,0.09,2.2
			c-0.12,0.83-0.05,1.64-0.08,2.47c-0.01,0.23,0.07,0.46,0.09,0.7c0.02,0.24,0,0.48,0,0.73c0,0.24-0.06,0.47-0.2,0.66
			c-0.3,0.4-1.02,0.53-1.48,0.09c-0.06-0.06-0.14-0.1-0.18-0.14c0-0.58-0.06-1.1,0.01-1.61c0.17-1.24,0.06-2.48,0.08-3.71
			c0.02-1.25,0.04-2.49-0.01-3.74c-0.02-0.44-0.08-0.88-0.08-1.32c0-0.39,0.18-0.63,0.53-0.79c0.62-0.29,1.2-0.15,1.72,0.21
			c0.25,0.17,0.4,0.5,0.56,0.78c0.41,0.72,0.79,1.45,1.19,2.17c0.3,0.54,0.66,1.06,0.92,1.63c0.1,0.21,0.33,0.36,0.42,0.57
			c0.3,0.69,0.67,1.35,0.91,2.07c0.07,0.22,0.22,0.41,0.35,0.61c0.1,0.16,0.27,0.15,0.42,0.11c0.12-0.04,0.16-0.15,0.17-0.29
			c0.01-0.36-0.1-0.7-0.16-1.05c-0.01-0.05-0.04-0.09-0.04-0.14c-0.02-0.7-0.22-1.4-0.1-2.1c0.16-0.91,0.06-1.82,0.09-2.73
			c0.01-0.28-0.03-0.57-0.07-0.86c-0.12-0.83,0.61-1.3,1.23-1.09c0.24,0.08,0.42,0.2,0.56,0.38c0.05,0.21,0.11,0.4,0.15,0.6
			c0.01,0.07,0.03,0.15,0,0.21c-0.17,0.38-0.09,0.78-0.09,1.17c-0.01,2.2-0.01,4.4,0,6.59c0,0.34-0.02,0.67,0.08,1.01
			c0.1,0.36,0,0.74-0.13,1.1c-0.19,0.51-0.93,0.78-1.45,0.56c-0.56-0.23-0.9-0.67-1.15-1.18c-0.29-0.61-0.63-1.19-0.96-1.77
			c-0.07-0.12-0.16-0.22-0.22-0.34c-0.42-0.85-0.9-1.66-1.41-2.45c-0.33-0.51-0.54-1.09-0.8-1.63c-0.15-0.3-0.26-0.62-0.44-0.91
			C163.43,60.35,163.24,60.25,163.06,60.11z"/>
		<path class="st0" d="M31.21,68.77c-0.19-0.18-0.34-0.32-0.49-0.46c0-0.21,0-0.4,0-0.58c0-3.15,0-6.3,0-9.44
			c0-0.17-0.01-0.35,0.05-0.51c0.13-0.35,0.39-0.54,0.78-0.54c1.07,0,2.14-0.01,3.22,0.01c0.21,0,0.43,0.07,0.63,0.15
			c0.52,0.21,0.98,0.51,1.45,0.82c0.31,0.21,0.45,0.56,0.61,0.87c0.22,0.39,0.39,0.83,0.33,1.3c-0.08,0.56-0.24,1.08-0.65,1.5
			c-0.13,0.14-0.28,0.26-0.4,0.4c-0.14,0.16-0.14,0.35,0.02,0.5c0.11,0.11,0.23,0.2,0.36,0.27c0.3,0.17,0.53,0.4,0.73,0.7
			c0.18,0.27,0.34,0.54,0.46,0.83c0.26,0.6,0.21,1.53-0.14,2.07c-0.19,0.3-0.4,0.59-0.64,0.85c-0.56,0.61-1.28,0.98-2.06,1.22
			c-0.11,0.03-0.24,0.03-0.36,0.03C33.82,68.77,32.52,68.77,31.21,68.77z M32.5,67.05c0.22,0.23,0.45,0.28,0.7,0.27
			c0.45-0.01,0.9-0.03,1.35,0c0.43,0.03,0.8-0.09,1.15-0.31c0.46-0.28,0.76-0.69,0.84-1.2c0.15-1-0.43-1.8-1.37-2.09
			c-0.13-0.04-0.27-0.02-0.41-0.03c-0.53-0.04-1.05,0.07-1.58-0.08c-0.16-0.05-0.38,0.08-0.57,0.15c-0.05,0.02-0.1,0.11-0.1,0.16
			c0,0.26-0.04,0.53,0.03,0.77c0.13,0.44,0.12,0.9,0.04,1.32C32.5,66.36,32.54,66.7,32.5,67.05z M32.5,61.84
			c0.14,0.23,0.32,0.3,0.57,0.29c0.45-0.02,0.9-0.03,1.35,0c0.38,0.02,0.65-0.14,0.9-0.39c0.13-0.13,0.27-0.28,0.33-0.44
			c0.12-0.33,0.27-0.67,0.26-1.01c-0.02-0.51-0.23-0.98-0.69-1.28c-0.12-0.08-0.26-0.18-0.4-0.2c-0.54-0.09-1.08-0.13-1.63-0.12
			c-0.27,0.01-0.5,0.06-0.67,0.25c0,0.29-0.06,0.59,0.02,0.84c0.12,0.36,0.11,0.73,0.05,1.06C32.51,61.19,32.51,61.52,32.5,61.84z"
			/>
		<path class="st0" d="M152.33,68.98c-0.19,0-0.38-0.01-0.57,0c-0.67,0.02-1.26-0.2-1.8-0.57c-0.24-0.16-0.48-0.31-0.72-0.47
			c-0.06-0.04-0.12-0.06-0.17-0.11c-0.54-0.59-1.07-1.18-1.29-1.98c-0.15-0.52-0.25-1.04-0.34-1.57c-0.09-0.55-0.1-1.09-0.07-1.64
			c0.04-0.67,0.12-1.34,0.35-1.98c0.07-0.19,0.09-0.4,0.17-0.58c0.12-0.28,0.25-0.56,0.42-0.8c0.46-0.64,0.98-1.24,1.69-1.6
			c0.51-0.25,1.05-0.44,1.58-0.64c0.09-0.03,0.2-0.01,0.31-0.01c0.35,0,0.69,0.02,1.04-0.01c0.67-0.06,1.28,0.15,1.85,0.44
			c0.6,0.3,1.16,0.69,1.58,1.23c0.55,0.7,0.93,1.47,1.17,2.33c0.01,0.03,0.01,0.07,0.02,0.1c0.04,0.44,0.08,0.88,0.1,1.32
			c0.02,0.43,0.05,0.87-0.01,1.3c-0.09,0.61-0.16,1.22-0.39,1.81c-0.23,0.59-0.6,1.08-0.94,1.61c-0.41,0.65-1.06,1.01-1.67,1.37
			c-0.47,0.28-1.04,0.48-1.63,0.45C152.78,68.97,152.56,68.98,152.33,68.98z M155.78,62.92c0.02-0.54,0-1.18-0.2-1.81
			c-0.25-0.82-0.58-1.57-1.39-2.01c-0.56-0.31-1.14-0.51-1.77-0.49c-0.36,0.01-0.74,0.09-1.07,0.24c-0.86,0.37-1.49,0.99-1.8,1.9
			c-0.19,0.58-0.27,1.18-0.3,1.78c-0.03,0.56-0.01,1.12,0.07,1.69c0.07,0.5,0.14,1,0.34,1.47c0.19,0.45,0.48,0.83,0.87,1.15
			c0.32,0.26,0.69,0.36,1.05,0.46c0.62,0.18,1.25,0.23,1.89-0.05c0.31-0.14,0.65-0.22,0.9-0.44c0.88-0.77,1.34-1.77,1.41-2.94
			C155.79,63.58,155.78,63.3,155.78,62.92z"/>
		<path class="st0" d="M59.4,68.39c0-3.6,0-7.18,0-10.76c0.18-0.29,0.48-0.38,0.78-0.39c1.18-0.01,2.35-0.01,3.53,0
			c0.13,0,0.26,0.06,0.39,0.1c0.58,0.18,1.14,0.4,1.67,0.7c0.54,0.31,1,0.73,1.38,1.21c0.42,0.52,0.74,1.12,0.9,1.79
			c0.08,0.33,0.18,0.65,0.18,0.99c0,0.54-0.01,1.07,0,1.61c0.01,0.67-0.19,1.29-0.41,1.91c-0.28,0.78-0.77,1.4-1.37,1.93
			c-0.68,0.59-1.48,0.98-2.36,1.2c-0.34,0.08-0.67,0.1-1.01,0.1c-0.93,0-1.87,0-2.8,0C59.92,68.77,59.68,68.66,59.4,68.39z
			 M61.16,66.84c0.16,0.19,0.34,0.27,0.56,0.27c0.5,0,1,0.01,1.51-0.01c0.28-0.01,0.57-0.07,0.84-0.15c0.82-0.24,1.41-0.76,1.83-1.5
			c0.41-0.73,0.47-1.54,0.55-2.34c0.06-0.59-0.08-1.18-0.19-1.76c-0.18-0.93-0.75-1.58-1.47-2.13c-0.16-0.12-0.33-0.26-0.52-0.3
			c-0.44-0.1-0.89-0.17-1.34-0.21c-0.36-0.03-0.73,0-1.09-0.01c-0.27-0.01-0.5,0.06-0.68,0.29c0.04,0.32-0.04,0.64,0.09,0.97
			c0.09,0.23,0.06,0.52-0.01,0.77c-0.04,0.15-0.07,0.29-0.07,0.45c0,1.13,0,2.25,0,3.38c0,0.12-0.02,0.25,0.03,0.35
			c0.15,0.32,0.12,0.67,0.05,0.96C61.16,66.19,61.19,66.52,61.16,66.84z"/>
		<path class="st0" d="M42.05,57.75c0.28-0.41,0.61-0.53,1.04-0.52c0.88,0.02,1.77,0.02,2.65,0c0.37-0.01,0.71,0.08,1.03,0.22
			c0.54,0.23,1.11,0.42,1.52,0.89c0.34,0.38,0.64,0.8,0.81,1.28c0.25,0.7,0.11,1.37-0.26,1.99c-0.28,0.48-0.69,0.84-1.16,1.14
			c-0.44,0.28-0.5,0.63-0.08,0.92c0.46,0.31,0.63,0.74,0.82,1.22c0.37,0.97,0.75,1.94,1.26,2.86c0.07,0.13,0.13,0.28,0.15,0.42
			c0.04,0.38-0.18,0.68-0.56,0.71c-0.65,0.05-1.14-0.04-1.41-0.72c-0.21-0.53-0.42-1.06-0.62-1.59c-0.16-0.42-0.28-0.86-0.45-1.28
			c-0.22-0.53-0.54-1.01-1.02-1.32c-0.37-0.25-0.8-0.45-1.29-0.39c-0.1,0.01-0.21,0-0.32,0c-0.12,0.12-0.25,0.24-0.39,0.38
			c0.05,0.27,0.13,0.54,0.13,0.8c0.01,1.12,0.01,2.25,0,3.37c0,0.37-0.19,0.55-0.58,0.64c-0.05,0.01-0.09,0.04-0.14,0.05
			c-0.64,0.18-1.2-0.2-1.24-0.88c-0.01-0.23-0.06-0.47,0.08-0.71c0.07-0.12,0.02-0.3,0.02-0.46c0-2.84,0-5.68,0-8.51
			C42.05,58.09,42.05,57.92,42.05,57.75z M43.81,59.09c0.05,0.22,0.03,0.45,0.07,0.69c0.07,0.45,0.02,0.92,0,1.38
			c-0.01,0.18-0.05,0.37-0.07,0.55c-0.02,0.21,0.13,0.35,0.28,0.39c0.27,0.08,0.58,0.15,0.84,0.1c0.27-0.06,0.54-0.05,0.81-0.08
			c0.16-0.02,0.34-0.04,0.49-0.11c0.48-0.21,0.77-0.61,0.97-1.07c0.1-0.22,0.15-0.5,0.12-0.73c-0.04-0.26-0.15-0.52-0.31-0.73
			c-0.3-0.41-0.69-0.7-1.24-0.69c-0.23,0.01-0.47-0.04-0.7-0.07C44.63,58.65,44.13,58.59,43.81,59.09z"/>
		<path class="st0" d="M135.28,62.02c0.1-0.12,0.2-0.24,0.33-0.39c0-1.34,0-2.72,0-4.09c0.24-0.34,0.59-0.39,0.95-0.4
			c0.33-0.01,0.55,0.16,0.74,0.39c0.12,0.14,0.2,0.31,0.19,0.51c-0.03,0.44,0.07,0.89-0.1,1.32c-0.03,0.09-0.01,0.21-0.01,0.31
			c0,2.27,0,4.53,0,6.8c0,0.27,0.07,0.53,0.09,0.8c0.02,0.26,0,0.52,0.01,0.78c0.01,0.28-0.09,0.54-0.32,0.65
			c-0.25,0.12-0.54,0.21-0.83,0.16c-0.13-0.02-0.26-0.06-0.39-0.1c-0.18-0.05-0.32-0.21-0.33-0.4c-0.01-0.22,0-0.45,0-0.67
			c0-1.28,0-2.56,0-3.83c-0.14-0.22-0.32-0.31-0.57-0.29c-0.27,0.02-0.54,0.06-0.8,0.09c-0.6,0.06-1.22,0.09-1.81-0.01
			c-0.41-0.07-0.81-0.04-1.23-0.08c-0.12,0.12-0.24,0.25-0.37,0.39c0.04,0.35,0.1,0.7,0.11,1.06c0.02,0.52,0,1.04,0.01,1.56
			c0.01,0.29,0,0.57,0.08,0.86c0.09,0.35,0.04,0.76-0.19,1.07c-0.38,0.51-1.11,0.53-1.58,0.09c-0.06-0.06-0.12-0.12-0.18-0.19
			c0-0.54-0.06-1.08,0.01-1.61c0.16-1.19,0.06-2.37,0.08-3.56c0.02-1.19,0.01-2.39,0-3.58c0-0.27-0.07-0.53-0.09-0.8
			c-0.02-0.28-0.01-0.55-0.01-0.83c0-0.1-0.02-0.22,0.01-0.31c0.07-0.22,0.13-0.39,0.43-0.49c0.44-0.15,0.8-0.07,1.16,0.14
			c0.29,0.17,0.29,0.51,0.38,0.8c0.02,0.08,0.02,0.18,0,0.26c-0.19,0.62-0.05,1.26-0.1,1.89c-0.02,0.22,0.03,0.43-0.09,0.65
			c-0.07,0.14-0.03,0.34-0.01,0.51c0.03,0.28,0.29,0.54,0.58,0.54c0.74,0.01,1.49,0.04,2.23-0.02c0.28-0.02,0.55-0.04,0.83,0.01
			C134.73,62.05,134.98,62.02,135.28,62.02z"/>
		<path class="st0" d="M116.28,68.53c-0.11,0.11-0.21,0.22-0.33,0.35c-0.32-0.05-0.63,0.04-0.96-0.08c-0.27-0.1-0.45-0.23-0.55-0.47
			c-0.24-0.55-0.5-1.1-0.69-1.67c-0.11-0.32-0.25-0.59-0.53-0.79c-0.36,0.02-0.75-0.07-1.1,0.1c-0.68-0.05-1.37,0.1-2.05-0.09
			c-0.21-0.06-0.45-0.03-0.67-0.01c-0.18,0.02-0.35,0.11-0.42,0.31c-0.15,0.42-0.3,0.85-0.46,1.27c-0.1,0.28-0.19,0.57-0.32,0.84
			c-0.25,0.53-0.99,0.76-1.52,0.49c-0.32-0.16-0.42-0.26-0.31-0.7c0.06-0.24,0.16-0.48,0.29-0.7c0.36-0.61,0.58-1.28,0.82-1.94
			c0.33-0.93,0.6-1.88,0.96-2.79c0.21-0.54,0.44-1.08,0.64-1.64c0.34-0.98,0.67-1.96,1.01-2.93c0.14-0.41,0.38-0.76,0.83-0.89
			c0.41-0.12,0.8-0.06,1.14,0.21c0.38,0.3,0.55,0.72,0.71,1.15c0.52,1.41,0.97,2.84,1.53,4.24c0.4,1.01,0.73,2.04,1.07,3.07
			c0.18,0.54,0.41,1.06,0.69,1.56C116.24,67.76,116.39,68.09,116.28,68.53z M110.83,60.13c-0.04,0.35-0.08,0.68-0.13,1.02
			c-0.02,0.15-0.05,0.3-0.1,0.44c-0.13,0.38-0.29,0.75-0.41,1.13c-0.13,0.42-0.41,0.77-0.58,1.17c-0.09,0.22-0.07,0.31,0.13,0.42
			c0.32,0.19,0.69,0.16,1,0.07c0.3-0.09,0.6-0.11,0.86-0.05c0.34,0.09,0.67,0.06,1,0.08c0.33-0.32,0.39-0.55,0.14-0.89
			c-0.24-0.33-0.42-0.69-0.53-1.08c-0.18-0.61-0.44-1.19-0.49-1.84c-0.03-0.33-0.1-0.72-0.56-0.87
			C111.07,59.84,110.96,59.98,110.83,60.13z"/>
		<path class="st0" d="M77.55,65.86c-0.45,0.04-0.87-0.07-1.26,0.11c-0.68-0.05-1.37,0.09-2.05-0.09c-0.24-0.06-0.51-0.01-0.78-0.01
			c-0.22,0.31-0.38,0.62-0.47,0.99c-0.11,0.47-0.32,0.91-0.5,1.36c-0.25,0.6-1.04,0.8-1.7,0.54c-0.08-0.03-0.16-0.15-0.17-0.23
			c-0.02-0.32-0.05-0.65,0.17-0.93c0.36-0.48,0.54-1.05,0.73-1.59c0.48-1.41,1.05-2.78,1.52-4.19c0.35-1.06,0.79-2.09,1.11-3.17
			c0.1-0.33,0.27-0.65,0.41-0.97c0.16-0.39,0.67-0.62,1.17-0.52c0.56,0.11,0.95,0.44,1.13,1.02c0.17,0.56,0.43,1.09,0.61,1.64
			c0.41,1.32,0.93,2.61,1.43,3.9c0.31,0.81,0.57,1.64,0.86,2.45c0.16,0.44,0.35,0.87,0.53,1.3c0.08,0.19,0.16,0.37,0.23,0.55
			c0.2,0.5-0.02,0.7-0.45,0.83c-0.23,0.07-0.5-0.01-0.75-0.05c-0.41-0.06-0.62-0.28-0.74-0.7c-0.15-0.58-0.4-1.13-0.63-1.69
			C77.86,66.2,77.68,66.03,77.55,65.86z M76.92,64.42c0.08-0.13,0.21-0.25,0.23-0.38c0.02-0.16-0.06-0.33-0.1-0.49
			c-0.01-0.05-0.05-0.09-0.09-0.12c-0.27-0.24-0.34-0.57-0.42-0.9c-0.02-0.08-0.05-0.16-0.08-0.24c-0.18-0.66-0.37-1.32-0.54-1.98
			c-0.07-0.26-0.18-0.47-0.42-0.6c-0.17,0.12-0.26,0.26-0.33,0.45c-0.15,0.4-0.2,0.81-0.29,1.22c-0.08,0.34-0.17,0.68-0.29,1.01
			c-0.16,0.45-0.4,0.85-0.63,1.26c-0.21,0.37-0.17,0.45,0.18,0.74c0.28,0,0.56,0.07,0.79-0.02c0.26-0.09,0.53-0.12,0.75-0.05
			C76.07,64.45,76.45,64.37,76.92,64.42z"/>
		<path class="st0" d="M118.28,66.63c0.35-0.3,0.68-0.32,1.02-0.11c0.2,0.13,0.39,0.26,0.6,0.38c0.16,0.09,0.33,0.16,0.5,0.22
			c0.46,0.16,0.92,0.34,1.42,0.3c0.92-0.07,1.59-0.56,1.91-1.37c0.18-0.45,0.04-0.91-0.28-1.28c-0.33-0.37-0.71-0.67-1.17-0.89
			c-0.7-0.34-1.42-0.64-2.04-1.12c-0.49-0.38-0.96-0.8-1.24-1.36c-0.33-0.65-0.44-1.34-0.18-2.05c0.15-0.4,0.35-0.75,0.64-1.08
			c0.5-0.58,1.18-0.84,1.83-1.18c0.04-0.02,0.09-0.04,0.14-0.04c0.27-0.02,0.54-0.04,0.81-0.08c0.28-0.05,0.6,0.06,0.89,0.12
			c0.45,0.09,0.86,0.27,1.27,0.47c0.5,0.24,0.79,0.58,0.73,1.16c-0.01,0.1,0,0.21,0,0.3c-0.02,0.04-0.03,0.07-0.05,0.1
			c-0.35,0.47-0.65,0.46-1.22-0.01c-0.43-0.35-0.9-0.53-1.39-0.69c-0.23-0.07-0.56-0.02-0.79,0.09c-0.49,0.25-0.96,0.52-1.15,1.14
			c-0.15,0.48-0.03,0.84,0.24,1.17c0.35,0.42,0.75,0.78,1.27,1.01c0.45,0.19,0.88,0.43,1.31,0.66c0.63,0.33,1.2,0.74,1.65,1.32
			c0.29,0.37,0.52,0.74,0.66,1.18c0.11,0.36,0.08,0.65-0.01,1.04c-0.12,0.52-0.36,0.97-0.65,1.41c-0.05,0.09-0.12,0.17-0.2,0.23
			c-0.33,0.27-0.65,0.56-1,0.79c-0.5,0.33-1.04,0.54-1.66,0.52c-0.36-0.01-0.73,0.02-1.09-0.01c-1-0.06-1.86-0.44-2.56-1.17
			c-0.16-0.17-0.25-0.36-0.23-0.6C118.29,67.02,118.28,66.83,118.28,66.63z"/>
		<path class="st0" d="M103.75,63.6c-0.14,0.22-0.31,0.3-0.57,0.29c-0.8-0.02-1.59-0.01-2.39-0.01c-0.15,0-0.29-0.04-0.44-0.08
			c-0.38-0.12-0.76,0.2-0.75,0.6c0.01,0.32,0.09,0.64,0.09,0.96c0.01,0.81,0.01,1.63,0,2.44c0,0.23-0.04,0.48-0.12,0.69
			c-0.07,0.2-0.27,0.27-0.49,0.32c-0.48,0.12-0.9,0.06-1.25-0.3c0-3.59,0-7.18,0-10.77c0.23-0.37,0.57-0.52,1.02-0.51
			c1,0.03,2.01,0.02,3.01,0.01c0.32,0,0.64,0.01,0.96-0.08c0.32-0.09,0.67-0.01,0.94,0.26c0.32,0.33,0.38,0.87,0.15,1.26
			c-0.14,0.23-0.4,0.29-0.61,0.31c-0.31,0.03-0.65,0.11-0.96-0.06c-0.04-0.02-0.1-0.02-0.15-0.02c-0.73,0-1.45,0-2.18-0.01
			c-0.21,0-0.29,0.15-0.42,0.28c0.01,0.3,0.03,0.6,0.08,0.9c0.08,0.47,0.09,0.97-0.1,1.42c-0.12,0.27-0.06,0.46,0.09,0.65
			c0.17,0.21,0.41,0.35,0.67,0.28c0.6-0.16,1.2-0.06,1.79-0.09c0.33-0.02,0.66-0.01,0.99,0c0.45,0.01,0.61,0.17,0.62,0.61
			C103.75,63.16,103.75,63.39,103.75,63.6z"/>
		<path class="st0" d="M85.54,66.74c0.15,0.13,0.26,0.24,0.41,0.37c0.67,0,1.38,0.03,2.09-0.01c0.3-0.02,0.6-0.1,0.91-0.09
			c0.1,0.01,0.21-0.01,0.31,0.02c0.48,0.11,0.67,0.37,0.68,0.87c0,0.31,0.03,0.62-0.28,0.88c-0.15,0-0.34,0-0.53,0
			c-1.45,0-2.91,0-4.36,0c-0.1,0-0.21,0-0.31,0c-0.4-0.03-0.64-0.25-0.65-0.64c-0.01-0.52-0.07-1.05,0.02-1.55
			c0.11-0.6,0.07-1.2,0.08-1.79c0.01-1.66,0-3.32,0.01-4.98c0-0.63-0.15-1.26-0.11-1.89c0.03-0.51,0.16-0.7,0.67-0.76
			c0.27-0.03,0.55-0.01,0.8,0.11c0.25,0.11,0.37,0.34,0.4,0.61c0.01,0.1,0,0.21,0,0.31c0,2.48,0,4.95-0.01,7.43
			C85.67,65.96,85.59,66.33,85.54,66.74z"/>
		<path class="st0" d="M55.04,63.03c0,1.63,0,3.25,0,4.88c0,0.15-0.02,0.3-0.06,0.45c-0.09,0.38-0.58,0.56-1.05,0.51
			c-0.49-0.06-0.83-0.41-0.85-0.91c-0.01-0.27-0.07-0.54,0.07-0.81c0.06-0.11,0.02-0.27,0.02-0.41c0-2.52,0-5.05,0-7.57
			c0-0.34-0.09-0.67-0.09-1.01c0-0.21,0.06-0.44,0.17-0.62c0.15-0.23,0.36-0.4,0.67-0.41c0.35-0.01,0.68,0.09,0.94,0.31
			c0.11,0.09,0.14,0.3,0.18,0.46c0.03,0.13,0.01,0.28,0.01,0.41C55.04,59.89,55.04,61.46,55.04,63.03z"/>
		<path class="st0" d="M143.63,63.04c0,1.59,0,3.18,0,4.77c0,0.12,0.01,0.24,0,0.36c-0.03,0.25-0.13,0.45-0.39,0.54
			c-0.3,0.09-0.56,0.21-0.92,0.1c-0.42-0.13-0.56-0.42-0.65-0.75c-0.06-0.21-0.07-0.47,0.01-0.66c0.07-0.19,0.08-0.37,0.08-0.55
			c0-2.61,0-5.22,0-7.83c0-0.2,0.06-0.42-0.09-0.59c-0.05-0.78,0.37-1.51,1.34-1.18c0.55,0.18,0.63,0.27,0.63,0.82
			C143.63,59.72,143.63,61.38,143.63,63.04C143.63,63.04,143.63,63.04,143.63,63.04z"/>
	</g>
</g>
</svg>
