<?xml version="1.0" encoding="utf-8"?>
<!-- Generator: Adobe Illustrator 23.0.4, SVG Export Plug-In . SVG Version: 6.00 Build 0)  -->
<svg version="1.1" id="Calque_1" xmlns="http://www.w3.org/2000/svg" xmlns:xlink="http://www.w3.org/1999/xlink" x="0px" y="0px"
	 viewBox="0 0 178.55 163.79" style="enable-background:new 0 0 178.55 163.79;" xml:space="preserve">
<style type="text/css">
	.st0{fill:#FFFFFF;}
</style>
<path class="st0" d="M118.03,75.99l51.83-52.01L151.17,4.06l-44.44,43.75c-8.7-20.08-17.14-35.64-17.14-35.64
	s-8.44,15.57-17.14,35.64L28.01,4.06L9.32,23.99l51.83,52.01l0.26,0.27c-4.03,12.04-7.04,23.97-7.67,33.93c10.16,0,17.44,0,22.65,0
	l3.79,3.7l4.02-3.7c5.38,0,5.38,0,5.38,0s0,0,5.38,0l4.02,3.7l3.79-3.7c5.22,0,12.49,0,22.65,0c-0.63-9.97-3.64-21.89-7.67-33.93
	L118.03,75.99z"/>
<path class="st0" d="M89.59,148.45H63.62c6.52,9.7,25.97,8.64,25.97,8.64s19.45,1.06,25.97-8.64H89.59z"/>
</svg>
